<?xml version="1.0" encoding="utf-8"?>
<!-- Generator: Adobe Illustrator 19.0.0, SVG Export Plug-In . SVG Version: 6.00 Build 0)  -->
<svg version="1.1" xmlns="http://www.w3.org/2000/svg" xmlns:xlink="http://www.w3.org/1999/xlink" x="0px" y="0px"
	 viewBox="0 0 1600 1200" style="enable-background:new 0 0 1600 1200;" xml:space="preserve">
<style type="text/css">
	.st0{fill:#E8E8E8;}
	.st1{fill:#EC615B;}
	.st2{fill:#5222D0;}
	.st3{fill:#161616;}
	.st4{fill:#FFFFFF;}
	.st5{opacity:0.13;fill:#666666;}
	.st6{opacity:0.11;fill:#666666;}
	.st7{opacity:0.1;fill:#666666;}
	.st8{opacity:0.15;fill:#666666;}
	.st9{fill:#FFFFFF;stroke:#000000;stroke-width:2;stroke-miterlimit:10;}
	.st10{opacity:0.16;fill:#666666;}
	.st11{opacity:0.3;fill:#EC615B;}
	.st12{opacity:0.3;}
	.st13{opacity:0.38;fill:#5222D0;}
	.st14{fill:#5222D0;stroke:#5222D0;stroke-miterlimit:10;}
</style>
<g id="background_2">
	<g>
		<g>
			<path class="st0" d="M300,1063.5c127.1,0,254.3,0,381.4,0c126.5,0,252.9,0,379.4,0c71.2,0,142.4,0,213.7,0c1.9,0,1.9-3,0-3
				c-127.1,0-254.3,0-381.4,0c-126.5,0-252.9,0-379.4,0c-71.2,0-142.4,0-213.7,0C298,1060.5,298,1063.5,300,1063.5L300,1063.5z"/>
		</g>
	</g>
	<g>
		<g>
			<path class="st0" d="M517.9,1085c93.8,0,187.7,0,281.5,0c26.6,0,53.2,0,79.9,0c1.9,0,1.9-3,0-3c-93.8,0-187.7,0-281.5,0
				c-26.6,0-53.2,0-79.9,0C516,1082,516,1085,517.9,1085L517.9,1085z"/>
		</g>
	</g>
	<g>
		<g>
			<path class="st0" d="M832.9,1106.4c90.3,0,180.6,0,270.8,0c25.7,0,51.3,0,77,0c1.9,0,1.9-3,0-3c-90.3,0-180.6,0-270.8,0
				c-25.7,0-51.3,0-77,0C831,1103.4,831,1106.4,832.9,1106.4L832.9,1106.4z"/>
		</g>
	</g>
	<g>
		<g>
			<path class="st0" d="M315.8,1089.5c38,0,76,0,114,0c1.9,0,1.9-3,0-3c-38,0-76,0-114,0C313.8,1086.5,313.8,1089.5,315.8,1089.5
				L315.8,1089.5z"/>
		</g>
	</g>
	<g>
		<g>
			<path class="st0" d="M394.6,970.9c4.1,29.9,10.9,59.4,20.4,88c0.6,1.8,3.5,1,2.9-0.8c-9.5-28.7-16.3-58.1-20.4-88
				C397.2,968.2,394.3,969,394.6,970.9L394.6,970.9z"/>
		</g>
	</g>
	<g>
		<g>
			<path class="st0" d="M395.8,972.1c35.6,13.1,74.7,14.5,111.2,4c1.9-0.5,1.1-3.4-0.8-2.9c-36,10.4-74.4,8.9-109.6-4
				C394.8,968.5,394,971.4,395.8,972.1L395.8,972.1z"/>
		</g>
	</g>
	<g>
		<g>
			<path class="st0" d="M505.1,975.2c-2.3,29.1-6.3,57.9-12.2,86.5c-0.4,1.9,2.5,2.7,2.9,0.8c6-28.8,10.1-57.9,12.3-87.3
				C508.3,973.3,505.3,973.3,505.1,975.2L505.1,975.2z"/>
		</g>
	</g>
	<g>
		<g>
			<path class="st0" d="M427.5,977.3c-11-9.3-18.2-21.9-20.7-36.1c-0.3,0.6-0.7,1.2-1,1.8c2.6-0.6,4.6-0.3,6.9,1
				c1.3,0.8,2.7-0.8,2.1-2.1c-1.7-3.2-3.3-6.3-5-9.5c-0.8-1.6-1.7-3.1-2.5-4.7c-1.3-2.8-2.6-10.1,2.8-9c1.2,0.2,2.1-0.7,1.8-1.8
				c-3.5-17.5-6.9-35.3-8-53.1c-0.5-8.2-0.4-16.6,1.5-24.7c0.9-3.9,2.2-7.7,3.9-11.3c1.2-2.5,2-5.6,6-3.6c1.4,0.7,2.8,2.5,3.9,3.7
				c10.5,11,15.9,25.8,19.8,40.2c4.6,16.5,8.4,33.3,11.7,50.1c4,20.4,6.4,41.1,5.7,62c-0.1,1.9,2.9,1.9,3,0
				c0.7-20.4-1.7-40.8-5.5-60.9c-3.6-19.2-7.9-38.5-13.6-57.2c-4.5-14.8-11.1-30.4-23.5-40.4c-11.6-9.3-15.8,23.9-16.1,30.3
				c-0.9,21.8,3.9,44.4,8.2,65.7c0.6-0.6,1.2-1.2,1.8-1.8c-4.4-0.9-7.8,2.4-8,6.8c-0.1,3.2,1.6,6.2,3,8.9c2.1,4,4.1,7.9,6.2,11.9
				c0.7-0.7,1.4-1.4,2.1-2.1c-3-1.7-5.9-2.1-9.2-1.3c-0.8,0.2-1.2,1.1-1,1.8c2.6,14.6,10.1,27.8,21.4,37.4
				C426.9,980.6,429,978.5,427.5,977.3L427.5,977.3z"/>
		</g>
	</g>
	<g>
		<g>
			<path class="st0" d="M454.7,919.7c-0.3-10.9,4.8-20.7,10.2-29.9c5.3-9.1,11.4-17.7,18.1-25.9c-0.8-0.2-1.7-0.4-2.5-0.7
				c0.5,1.4,1,2.9,1.6,4.3c0.4,1.2,2,1.5,2.7,0.4c7.8-11.5,16.2-22.5,25.3-33c-0.9-0.4-1.7-0.7-2.6-1.1c0.4,14.4-0.7,28.7-3.6,42.8
				c-2.3,11-4.6,28.4-16.3,33.4c-1.5,0.7-0.5,2.6,0.8,2.8c11.3,1.4-0.9,23.4-3,29.1c-4.7,12.7-8.8,25.7-12.8,38.6
				c-0.6,1.8,2.3,2.6,2.9,0.8c4.8-15.2,9.5-30.6,15.5-45.4c1.7-4.1,4.3-8.2,5.2-12.6c1.2-6.1-0.9-12.7-7.7-13.5
				c0.3,0.9,0.5,1.9,0.8,2.8c11.6-5,14.4-20.6,16.9-31.5c3.5-15.5,5-31.4,4.5-47.3c0-1.2-1.7-2.1-2.6-1.1
				c-9.2,10.7-17.8,21.9-25.8,33.6c0.9,0.1,1.8,0.2,2.7,0.4c-0.5-1.4-1-2.9-1.6-4.3c-0.3-1-1.7-1.6-2.5-0.7
				c-7.2,8.8-13.8,18.1-19.4,28c-5.3,9.2-10,19-9.7,29.9C451.7,921.7,454.7,921.7,454.7,919.7L454.7,919.7z"/>
		</g>
	</g>
	<g>
		<g>
			<path class="st0" d="M396.8,971.7c3.4-1.1,7.3,0.4,10.7,0.9c3.8,0.5,7.6,0.8,11.4,0.9c1.9,0,1.9-3,0-3c-4.8-0.1-9.5-0.5-14.2-1.4
				c-3-0.5-5.7-1.3-8.7-0.3C394.2,969.4,394.9,972.3,396.8,971.7L396.8,971.7z"/>
		</g>
	</g>
	<g>
		<g>
			<path class="st0" d="M477.1,975.7c9.8,0.2,19.6,0.6,29.3,1.2c1.9,0.1,1.9-2.9,0-3c-9.8-0.6-19.5-1-29.3-1.2
				C475.2,972.6,475.2,975.6,477.1,975.7L477.1,975.7z"/>
		</g>
	</g>
	<g>
		<g>
			<path class="st0" d="M408.8,974.1c4.1,1,8.2,2,12.2,2.9c1.9,0.5,2.7-2.4,0.8-2.9c-4.1-1-8.2-2-12.2-2.9
				C407.7,970.8,406.9,973.7,408.8,974.1L408.8,974.1z"/>
		</g>
	</g>
	<g>
		<g>
			<path class="st0" d="M477,973.8c-2.3,0.5-3,3.6-0.7,4.7c2.2,1,6.7-0.2,9-0.3c3.5-0.2,7-0.5,10.5-0.7c1.9-0.1,1.9-3.1,0-3
				c-3.2,0.2-6.5,0.4-9.7,0.7c-1.5,0.1-3,0.2-4.5,0.3c-0.7,0.1-1.5,0.1-2.2,0.2c-1.3-0.4-1.8,0-1.5,1.1
				C479.7,976.3,478.9,973.4,477,973.8L477,973.8z"/>
		</g>
	</g>
	<g>
		<g>
			<path class="st0" d="M410.8,1042.4c4.2,7.5,9.8,14.1,16.6,19.4c1.5,1.2,3.6-0.9,2.1-2.1c-6.6-5.2-12-11.4-16.1-18.8
				C412.5,1039.1,409.9,1040.7,410.8,1042.4L410.8,1042.4z"/>
		</g>
	</g>
	<g>
		<g>
			<path class="st0" d="M399.9,1000.4c14.5,23.2,32.5,43.9,53.6,61.4c1.5,1.2,3.6-0.9,2.1-2.1c-20.9-17.3-38.8-37.7-53.2-60.8
				C401.5,997.2,398.9,998.7,399.9,1000.4L399.9,1000.4z"/>
		</g>
	</g>
	<g>
		<g>
			<path class="st0" d="M405.5,974.4c9.6,17,19.6,34,32.9,48.4c14,15.1,30.9,27.9,47.3,40.1c1.6,1.2,3-1.5,1.5-2.6
				c-16.3-12.1-32.9-24.7-46.7-39.6c-13.1-14.2-22.9-31.1-32.4-47.8C407.1,971.2,404.5,972.7,405.5,974.4L405.5,974.4z"/>
		</g>
	</g>
	<g>
		<g>
			<path class="st0" d="M434.9,981.2c15.6,24.7,36.8,45.4,62,60.3c1.7,1,3.2-1.6,1.5-2.6c-24.7-14.7-45.6-35-60.9-59.3
				C436.4,978.1,433.8,979.6,434.9,981.2L434.9,981.2z"/>
		</g>
	</g>
	<g>
		<g>
			<path class="st0" d="M468.9,983c8.4,12.3,18.5,23.3,30.2,32.5c1.5,1.2,3.6-0.9,2.1-2.1c-11.5-9.1-21.5-19.8-29.7-31.9
				C470.4,979.9,467.8,981.4,468.9,983L468.9,983z"/>
		</g>
	</g>
	<g>
		<g>
			<path class="st0" d="M490.7,980.5c3.8,5.4,8.1,10.2,12.9,14.6c1.4,1.3,3.6-0.8,2.1-2.1c-4.7-4.2-8.8-8.9-12.5-14
				C492.2,977.5,489.5,979,490.7,980.5L490.7,980.5z"/>
		</g>
	</g>
	<g>
		<g>
			<path class="st0" d="M1061.9,983.7c3.3,26.4,8.3,52.6,15.3,78.3c0.5,1.9,3.4,1.1,2.9-0.8c-6.9-25.4-11.9-51.3-15.2-77.5
				C1064.6,981.8,1061.6,981.8,1061.9,983.7L1061.9,983.7z"/>
		</g>
	</g>
	<g>
		<g>
			<path class="st0" d="M1063.6,984.4c27,7.4,55.4,7.5,82.4,0.3c1.9-0.5,1.1-3.4-0.8-2.9c-26.5,7.1-54.3,7-80.8-0.3
				C1062.5,981,1061.8,983.8,1063.6,984.4L1063.6,984.4z"/>
		</g>
	</g>
	<g>
		<g>
			<path class="st0" d="M1144.5,983.7c-1.7,26.6-6.8,52.7-15.3,77.9c-0.6,1.8,2.3,2.6,2.9,0.8c8.5-25.5,13.7-51.9,15.4-78.7
				C1147.6,981.8,1144.6,981.8,1144.5,983.7L1144.5,983.7z"/>
		</g>
	</g>
	<g>
		<g>
			<path class="st0" d="M1088.5,986.4c-5.2-6.9-9.3-14.5-11.8-22.8c-1.2-4-2.1-8-2.7-12.2c-0.5-3.8-2.7-11.7,3-11.5
				c0.9,0,1.8-1,1.4-1.9c-1.3-4-2.1-7.8-2.3-12c-0.4,0.5-0.7,1-1.1,1.4c2.9-1,4.1-3.3,4.6-6.2c1-5.8,0.5-12.2,0.6-18.1
				c0.4-13.6,0.7-27.2,1.1-40.9c-0.8,0.4-1.5,0.9-2.3,1.3c8.8,6,12.9,18.2,16.3,27.9c3.5,10.2,5.9,20.8,7.4,31.4
				c3.1,21.8,2.8,43.9,1.7,65.9c-0.1,1.9,2.9,1.9,3,0c1.1-23.4,1.4-47-2.4-70.1c-1.9-11.5-4.7-22.9-9-33.7
				c-3.5-8.8-7.4-18.4-15.5-23.9c-1-0.7-2.2,0.2-2.3,1.3c-0.3,10.4-0.5,20.8-0.8,31.1c-0.1,5.2-0.3,10.4-0.4,15.6
				c-0.1,3.3,1.3,14.1-2.9,15.6c-0.6,0.2-1.1,0.8-1.1,1.4c0.2,4.4,1,8.6,2.4,12.8c0.5-0.6,1-1.3,1.4-1.9c-3-0.1-6.1,0.6-6.6,3.8
				c-0.7,5.1,0.5,11.3,1.5,16.4c2.3,11.2,7.2,21.7,14,30.9C1087,989.5,1089.6,988,1088.5,986.4L1088.5,986.4z"/>
		</g>
	</g>
	<g>
		<g>
			<path class="st0" d="M1105.9,918.3c2.6-9,5.6-17.9,8.7-26.7c-0.7,0.3-1.5,0.6-2.2,0.9c1,0.6,2,1.3,3.1,1.9
				c0.7,0.4,1.6,0.1,2.1-0.5c7.2-12,14.4-23.9,21.6-35.9c-0.9-0.3-1.9-0.5-2.8-0.8c4.3,44.2-2.7,89-20.3,129.9
				c-0.8,1.8,1.8,3.3,2.6,1.5c17.8-41.3,25-86.6,20.7-131.4c-0.1-1.4-2-2.1-2.8-0.8c-7.2,12-14.4,23.9-21.6,35.9
				c0.7-0.2,1.4-0.4,2.1-0.5c-1-0.6-2-1.3-3.1-1.9c-0.9-0.5-1.9,0-2.2,0.9c-3.2,8.8-6.1,17.7-8.7,26.7
				C1102.5,919.3,1105.4,920.1,1105.9,918.3L1105.9,918.3z"/>
		</g>
	</g>
	<g>
		<g>
			<path class="st0" d="M1065,984.5c5.7,0.2,11.3,0.5,17,0.7c1.9,0.1,1.9-2.9,0-3c-5.7-0.2-11.3-0.5-17-0.7
				C1063.1,981.4,1063.1,984.4,1065,984.5L1065,984.5z"/>
		</g>
	</g>
	<g>
		<g>
			<path class="st0" d="M1078.9,985.1c1.9,0.8,3.9,1.5,5.9,1.8c1.9,0.3,2.7-2.6,0.8-2.9c-1.8-0.3-3.6-0.8-5.2-1.5
				C1078.6,981.8,1077.1,984.3,1078.9,985.1L1078.9,985.1z"/>
		</g>
	</g>
	<g>
		<g>
			<path class="st0" d="M1120.2,986.2c8.3-1.2,16.5-2,24.9-2.5c1.9-0.1,1.9-3.1,0-3c-8.6,0.5-17.2,1.3-25.7,2.6
				C1117.5,983.6,1118.3,986.5,1120.2,986.2L1120.2,986.2z"/>
		</g>
	</g>
	<g>
		<g>
			<path class="st0" d="M1119.2,987.6c4.4-0.7,8.9-1.1,13.4-1.5c1.9-0.1,1.9-3.1,0-3c-4.8,0.3-9.5,0.9-14.2,1.6
				C1116.5,985,1117.3,987.8,1119.2,987.6L1119.2,987.6z"/>
		</g>
	</g>
	<g>
		<g>
			<path class="st0" d="M1066.1,999c6.6-0.2,12,3.7,18.4,4.6c7.1,1,11.5-4.9,18.2-4.8c6.7,0.1,12.5,4.5,19.3,4.5c3,0,6-0.6,8.7-1.8
				c4-1.6,7.7-4.8,12.2-3c1.8,0.7,2.6-2.2,0.8-2.9c-6.2-2.4-11.2,2.7-17,4.1c-8.2,2-14.7-2.9-22.5-3.8c-7.3-0.8-12.4,5.7-19.5,4.7
				c-6.4-1-11.9-4.8-18.6-4.5C1064.1,996.1,1064.1,999.1,1066.1,999L1066.1,999z"/>
		</g>
	</g>
	<g>
		<g>
			<path class="st0" d="M1067.4,1014.8c24.2,9.6,51.3,9.9,75.7,0.8c1.8-0.7,1-3.6-0.8-2.9c-24,8.9-50.3,8.6-74.1-0.8
				C1066.4,1011.2,1065.6,1014.1,1067.4,1014.8L1067.4,1014.8z"/>
		</g>
	</g>
	<g>
		<g>
			<path class="st0" d="M209.7,585.7c0,60.9,0,121.7,0,182.6c0,1.9,3,1.9,3,0c0-60.9,0-121.7,0-182.6
				C212.7,583.7,209.7,583.7,209.7,585.7L209.7,585.7z"/>
		</g>
	</g>
	<g>
		<g>
			<path class="st0" d="M211.7,586.8c41.5,0,83,0,124.5,0c1.9,0,1.9-3,0-3c-41.5,0-83,0-124.5,0
				C209.8,583.8,209.8,586.8,211.7,586.8L211.7,586.8z"/>
		</g>
	</g>
	<g>
		<g>
			<path class="st0" d="M336.5,585.3c0,60.4,0,120.8,0,181.3c0,1.9,3,1.9,3,0c0-60.4,0-120.8,0-181.3
				C339.5,583.3,336.5,583.3,336.5,585.3L336.5,585.3z"/>
		</g>
	</g>
	<g>
		<g>
			<path class="st0" d="M212.6,770.2c41.6,0,83.3,0,124.9,0c1.9,0,1.9-3,0-3c-41.6,0-83.3,0-124.9,0
				C210.7,767.2,210.7,770.2,212.6,770.2L212.6,770.2z"/>
		</g>
	</g>
	<g>
		<g>
			<path class="st0" d="M326.8,600.6c-1.5-0.4-3.1-1.6-3-3.4c0.1-2,2.1-3.2,3.9-2.4c1.5,0.7,2.7,2.4,2.4,4
				C330,600.3,328.1,601.6,326.8,600.6c-1.5-1.3-3.7,0.8-2.2,2.1c2.5,2,6.2,1.3,7.9-1.5c1.8-3.2-0.2-7.3-3.2-8.9
				c-3.2-1.7-7.1-0.1-8.2,3.4c-1.1,3.5,1.5,7,4.9,7.8C327.9,603.9,328.7,601,326.8,600.6L326.8,600.6z"/>
		</g>
	</g>
	<g>
		<g>
			<path class="st0" d="M322.8,754.5c-1.4-1.2-1.8-3.6-0.4-5c1.5-1.6,4.3-1.1,5.4,0.7c0.7,1.2,1.7,4.3,0,5.2
				c-0.9,0.5-2.1-0.3-2.8-0.8c-1-0.6-2-1.1-3.1-1.5c-1.8-0.7-2.6,2.2-0.8,2.9c1.9,0.7,3.4,2.1,5.4,2.5c1.6,0.3,3.3-0.4,4.2-1.7
				c1.9-2.8,0.8-7.3-1.5-9.6c-2.5-2.4-7-2.2-9.2,0.5c-2.2,2.6-1.8,6.7,0.7,8.9C322.1,758,324.3,755.8,322.8,754.5L322.8,754.5z"/>
		</g>
	</g>
	<g>
		<g>
			<path class="st0" d="M219.6,597.7c24.9-0.1,49.8-0.1,74.6-0.2c1.9,0,1.9-3,0-3c-24.9,0.1-49.8,0.1-74.6,0.2
				C217.7,594.7,217.7,597.7,219.6,597.7L219.6,597.7z"/>
		</g>
	</g>
	<g>
		<g>
			<path class="st0" d="M219.6,604.9c10.2,0.7,20.6,2.3,30.8,0.4c1.9-0.4,1.1-3.2-0.8-2.9c-9.8,1.8-20.1,0.2-30-0.5
				C217.7,601.8,217.7,604.8,219.6,604.9L219.6,604.9z"/>
		</g>
	</g>
	<g>
		<g>
			<path class="st0" d="M221.1,757.8c-0.8-0.3-1.1-1.4-1-2.2c0.2-1.1,1.3-1.5,2.3-1.3c1.3,0.2,2.3,1.1,2.4,2.4
				c0.1,1-1.1,2.6-2.2,1.7c-1.5-1.2-3.6,0.9-2.1,2.1c2.4,1.9,6,1,7.1-2c1-2.9-0.8-6.1-3.7-7c-2.6-0.8-5.7,0.3-6.5,3
				c-0.8,2.5,0.5,5.3,3,6.1C222.2,761.3,223,758.5,221.1,757.8L221.1,757.8z"/>
		</g>
	</g>
	<g>
		<g>
			<path class="st0" d="M222.9,629.1c26.7,0,53.5,0,80.2,0c1.9,0,1.9-3,0-3c-26.7,0-53.5,0-80.2,0C221,626.1,221,629.1,222.9,629.1
				L222.9,629.1z"/>
		</g>
	</g>
	<g>
		<g>
			<path class="st0" d="M227.4,639c21,0,42.1,0,63.1,0c1.9,0,1.9-3,0-3c-21,0-42.1,0-63.1,0C225.5,636,225.5,639,227.4,639
				L227.4,639z"/>
		</g>
	</g>
	<g>
		<g>
			<path class="st0" d="M226.5,656.2c20.3,0,40.6,0,60.8,0c1.9,0,1.9-3,0-3c-20.3,0-40.6,0-60.8,0
				C224.6,653.2,224.6,656.2,226.5,656.2L226.5,656.2z"/>
		</g>
	</g>
	<g>
		<g>
			<path class="st0" d="M207.5,501.8c0-4.5,0-9,0-13.5c0-1.9-3-1.9-3,0c0,4.5,0,9,0,13.5C204.5,503.7,207.5,503.7,207.5,501.8
				L207.5,501.8z"/>
		</g>
	</g>
	<g>
		<g>
			<path class="st0" d="M207,488c85,0,170,0,255,0c23.9,0,47.8,0,71.7,0c1.9,0,1.9-3,0-3c-85,0-170,0-255,0c-23.9,0-47.8,0-71.7,0
				C205.1,485,205.1,488,207,488L207,488z"/>
		</g>
	</g>
	<g>
		<g>
			<path class="st0" d="M206.3,503.6c85.2,0,170.4,0,255.6,0c24.2,0,48.4,0,72.6,0c1.9,0,1.9-3,0-3c-85.2,0-170.4,0-255.6,0
				c-24.2,0-48.4,0-72.6,0C204.3,500.6,204.3,503.6,206.3,503.6L206.3,503.6z"/>
		</g>
	</g>
	<g>
		<g>
			<path class="st0" d="M533.4,486.6c0,4.7,0,9.4,0,14.1c0,1.9,3,1.9,3,0c0-4.7,0-9.4,0-14.1C536.4,484.7,533.4,484.7,533.4,486.6
				L533.4,486.6z"/>
		</g>
	</g>
	<g>
		<g>
			<path class="st0" d="M367.2,485.7c0-7.3,0-14.5,0-21.8c0-1.9-3-1.9-3,0c0,7.3,0,14.5,0,21.8C364.2,487.6,367.2,487.6,367.2,485.7
				L367.2,485.7z"/>
		</g>
	</g>
	<g>
		<g>
			<path class="st0" d="M376.3,462c0,7.3,0,14.5,0,21.8c0,1.9,3,1.9,3,0c0-7.3,0-14.5,0-21.8C379.3,460,376.3,460,376.3,462
				L376.3,462z"/>
		</g>
	</g>
	<g>
		<g>
			<path class="st0" d="M377.9,463.5c23.2,0,46.4,0,69.7,0c1.9,0,1.9-3,0-3c-23.2,0-46.4,0-69.7,0C376,460.5,376,463.5,377.9,463.5
				L377.9,463.5z"/>
		</g>
	</g>
	<g>
		<g>
			<path class="st0" d="M449.5,461.6c0-28.5,0-56.9,0-85.4c0-1.9-3-1.9-3,0c0,28.5,0,56.9,0,85.4
				C446.5,463.5,449.5,463.5,449.5,461.6L449.5,461.6z"/>
		</g>
	</g>
	<g>
		<g>
			<path class="st0" d="M448,374.5c-48.6,0-97.2,0-145.8,0c-1.9,0-1.9,3,0,3c48.6,0,97.2,0,145.8,0
				C449.9,377.5,449.9,374.5,448,374.5L448,374.5z"/>
		</g>
	</g>
	<g>
		<g>
			<path class="st0" d="M300,376.2c0,26.2,0,52.5,0,78.7c0,1.9,3,1.9,3,0c0-26.2,0-52.5,0-78.7C303,374.3,300,374.3,300,376.2
				L300,376.2z"/>
		</g>
	</g>
	<g>
		<g>
			<path class="st0" d="M365.5,462.1c-21.2,0-42.4,0-63.5,0c-1.9,0-1.9,3,0,3c21.2,0,42.4,0,63.5,0
				C367.4,465.1,367.4,462.1,365.5,462.1L365.5,462.1z"/>
		</g>
	</g>
	<g>
		<g>
			<path class="st0" d="M300,452.2c0,3.3,0,6.7,0,10c0,1.9,3,1.9,3,0c0-3.3,0-6.7,0-10C303,450.3,300,450.3,300,452.2L300,452.2z"/>
		</g>
	</g>
	<g>
		<g>
			<path class="st0" d="M308.7,382.9c0,23.7,0,47.4,0,71.1c0,1.9,3,1.9,3,0c0-23.7,0-47.4,0-71.1C311.7,381,308.7,381,308.7,382.9
				L308.7,382.9z"/>
		</g>
	</g>
	<g>
		<g>
			<path class="st0" d="M310.6,455.7c42.3,0,84.6,0,126.9,0c1.9,0,1.9-3,0-3c-42.3,0-84.6,0-126.9,0
				C308.7,452.7,308.7,455.7,310.6,455.7L310.6,455.7z"/>
		</g>
	</g>
	<g>
		<g>
			<path class="st0" d="M439.5,452.7c0-22.4,0-44.9,0-67.3c0-1.9-3-1.9-3,0c0,22.4,0,44.9,0,67.3
				C436.5,454.6,439.5,454.6,439.5,452.7L439.5,452.7z"/>
		</g>
	</g>
	<g>
		<g>
			<path class="st0" d="M310.9,384.2c42.4,0,84.7,0,127.1,0c1.9,0,1.9-3,0-3c-42.4,0-84.7,0-127.1,0
				C308.9,381.2,308.9,384.2,310.9,384.2L310.9,384.2z"/>
		</g>
	</g>
	<g>
		<g>
			<path class="st0" d="M436.2,384.2c0,0.2,0,0.4,0,0.7c0,0.8,0.7,1.5,1.5,1.5c0.8,0,1.5-0.7,1.5-1.5c0-0.2,0-0.4,0-0.7
				c0-0.8-0.7-1.5-1.5-1.5C436.9,382.8,436.2,383.4,436.2,384.2L436.2,384.2z"/>
		</g>
	</g>
	<g>
		<g>
			<path d="M1037.5,544.6c13.3,3.8,27.7,4.2,41.3,5.7c15.4,1.7,30.8,3.3,46.2,5c30.5,3.3,60.9,6.5,91.4,9.8c1.9,0.2,1.9-2.8,0-3
				c-29.8-3.2-59.6-6.4-89.4-9.6c-14.7-1.6-29.5-3.2-44.2-4.7c-14.7-1.6-30.3-1.9-44.5-6C1036.5,541.2,1035.7,544.1,1037.5,544.6
				L1037.5,544.6z"/>
		</g>
	</g>
	<g>
		<g>
			<path d="M1251.4,498.5c-9.8,22.3-21.3,43.8-34.4,64.4c-1,1.6,1.6,3.1,2.6,1.5c13.1-20.6,24.6-42.1,34.4-64.4
				C1254.8,498.3,1252.2,496.8,1251.4,498.5L1251.4,498.5z"/>
		</g>
	</g>
	<g>
		<g>
			<path d="M1039.3,543.6c20.4-14.7,40.2-30.3,59.1-46.8c1.5-1.3-0.7-3.4-2.1-2.1c-18.8,16.3-38.3,31.8-58.5,46.3
				C1036.3,542.1,1037.8,544.8,1039.3,543.6L1039.3,543.6z"/>
		</g>
	</g>
	<g>
		<g>
			<path d="M1098,496.4c25.4-3,51.1-1,76.6,0.3c25.9,1.3,51.9,2.6,77.8,3.9c1.9,0.1,1.9-2.9,0-3c-25.9-1.3-51.9-2.6-77.8-3.9
				c-25.5-1.3-51.2-3.3-76.6-0.3C1096.1,493.6,1096.1,496.6,1098,496.4L1098,496.4z"/>
		</g>
	</g>
	<g>
		<g>
			<path class="st0" d="M1130.6,515.4c-1.6,2.7-3.3,5.3-4.9,8c-0.6,0.9,0.2,2.3,1.3,2.3c3.6-0.1,7.2-0.1,10.8,0.4
				c2,0.2,5.4,1.6,7.5,0.9c3.2-1.1,5.4-7,6.7-9.6c0.9-1.7-1.7-3.2-2.6-1.5c-0.9,1.7-1.8,3.9-3,5.4c-2.1,2.5-4.1,2.5-7.1,2
				c-4.1-0.6-8.2-0.7-12.3-0.6c0.4,0.8,0.9,1.5,1.3,2.3c1.6-2.7,3.3-5.3,4.9-8C1134.2,515.3,1131.6,513.8,1130.6,515.4L1130.6,515.4
				z"/>
		</g>
	</g>
	<g>
		<g>
			<path class="st0" d="M1132.6,516.9c5.8-1.5,11.4-1.5,17,0.9c1.8,0.8,3.3-1.8,1.5-2.6c-6.4-2.8-12.7-3-19.4-1.2
				C1129.9,514.5,1130.7,517.4,1132.6,516.9L1132.6,516.9z"/>
		</g>
	</g>
	<g>
		<g>
			<path class="st0" d="M1086.4,519.2c5.3-0.2,10.4,0.3,15.5,1.6c1.9,0.5,2.7-2.4,0.8-2.9c-5.4-1.3-10.8-1.9-16.3-1.7
				C1084.5,516.3,1084.5,519.3,1086.4,519.2L1086.4,519.2z"/>
		</g>
	</g>
	<g>
		<g>
			<path class="st0" d="M1087,517.9c3.2-3.5,6.6-6.8,10.1-10c1.4-1.3-0.7-3.4-2.1-2.1c-3.5,3.2-6.8,6.6-10.1,10
				C1083.6,517.2,1085.7,519.4,1087,517.9L1087,517.9z"/>
		</g>
	</g>
	<g>
		<g>
			<path class="st0" d="M1095.1,508c4.4,2.2,10.1,1.6,15,1.7c1.9,0.1,1.9-2.9,0-3c-4.1-0.1-9.7,0.6-13.5-1.3
				C1094.9,504.6,1093.4,507.1,1095.1,508L1095.1,508z"/>
		</g>
	</g>
	<g>
		<g>
			<path class="st0" d="M1107.9,507.8c-2.4,3.3-4.8,6.7-7,10.2c-1,1.6,1.6,3.1,2.6,1.5c2.2-3.5,4.5-6.9,7-10.2
				C1111.6,507.7,1109,506.2,1107.9,507.8L1107.9,507.8z"/>
		</g>
	</g>
	<g>
		<g>
			<path class="st0" d="M1230.1,366.3c0,30.3,0,60.7,0,91c0,1.9,3,1.9,3,0c0-30.3,0-60.7,0-91
				C1233.1,364.3,1230.1,364.3,1230.1,366.3L1230.1,366.3z"/>
		</g>
	</g>
	<g>
		<g>
			<path class="st0" d="M1232.3,458.8c43.7,0,87.5,0,131.2,0c1.9,0,1.9-3,0-3c-43.7,0-87.5,0-131.2,0
				C1230.3,455.8,1230.3,458.8,1232.3,458.8L1232.3,458.8z"/>
		</g>
	</g>
	<g>
		<g>
			<path class="st0" d="M1365.1,457.1c-0.3-30.2-0.7-60.4-1-90.5c0-1.9-3-1.9-3,0c0.3,30.2,0.7,60.4,1,90.5
				C1362.1,459,1365.1,459,1365.1,457.1L1365.1,457.1z"/>
		</g>
	</g>
	<g>
		<g>
			<path class="st0" d="M1232,367c42.9,0,85.8,0,128.6,0c1.9,0,1.9-3,0-3c-42.9,0-85.8,0-128.6,0C1230.1,364,1230.1,367,1232,367
				L1232,367z"/>
		</g>
	</g>
	<g>
		<g>
			<path class="st0" d="M1296.4,364.1c-0.4-2.7-0.3-5.5,0.5-8.2c0.6-2.3,2.7-7.7,6.1-6c2,1,2.6,4.6,2.9,6.6c0.4,2.7,0.4,5.4,0.1,8.1
				c-0.2,1.9,2.8,1.9,3,0c0.5-5,0.5-18.7-7.7-18c-7.6,0.7-8.6,12.8-7.8,18.3C1293.8,366.8,1296.7,366,1296.4,364.1L1296.4,364.1z"/>
		</g>
	</g>
	<g>
		<g>
			<path class="st0" d="M1074,199c0,36.8,0,73.5,0,110.3c0,1.9,3,1.9,3,0c0-36.8,0-73.5,0-110.3C1077,197.1,1074,197.1,1074,199
				L1074,199z"/>
		</g>
	</g>
	<g>
		<g>
			<path class="st0" d="M1076.4,310.8c53,0,105.9,0,158.9,0c1.9,0,1.9-3,0-3c-53,0-105.9,0-158.9,0
				C1074.5,307.8,1074.5,310.8,1076.4,310.8L1076.4,310.8z"/>
		</g>
	</g>
	<g>
		<g>
			<path class="st0" d="M1237,309c-0.4-36.6-0.8-73.1-1.2-109.7c0-1.9-3-1.9-3,0c0.4,36.6,0.8,73.1,1.2,109.7
				C1234,310.9,1237,310.9,1237,309L1237,309z"/>
		</g>
	</g>
	<g>
		<g>
			<path class="st0" d="M1076.1,199.6c51.9,0,103.9,0,155.8,0c1.9,0,1.9-3,0-3c-51.9,0-103.9,0-155.8,0
				C1074.2,196.6,1074.2,199.6,1076.1,199.6L1076.1,199.6z"/>
		</g>
	</g>
	<g>
		<g>
			<path class="st0" d="M1153.8,196.5c-0.5-3.4-0.3-6.8,0.6-10.1c0.8-2.9,3.4-9.7,7.9-7.5c5,2.5,4.3,13.6,3.8,18
				c-0.2,1.9,2.8,1.9,3,0c0.6-5.8,0.7-22.4-9-21.4c-9,0.9-10.1,15.3-9.1,21.8C1151.2,199.2,1154.1,198.4,1153.8,196.5L1153.8,196.5z
				"/>
		</g>
	</g>
	<g>
		<g>
			<path class="st0" d="M1082.5,207.4c0,30.1,0,60.2,0,90.2c0,1.9,3,1.9,3,0c0-30.1,0-60.2,0-90.2
				C1085.5,205.4,1082.5,205.4,1082.5,207.4L1082.5,207.4z"/>
		</g>
	</g>
	<g>
		<g>
			<path class="st0" d="M1084,301.1c46.8,0,93.6,0,140.4,0c1.9,0,1.9-3,0-3c-46.8,0-93.6,0-140.4,0
				C1082.1,298.1,1082,301.1,1084,301.1L1084,301.1z"/>
		</g>
	</g>
	<g>
		<g>
			<path class="st0" d="M1227.9,298.4c0-29.5,0-59.1,0-88.6c0-1.9-3-1.9-3,0c0,29.5,0,59.1,0,88.6
				C1224.9,300.3,1227.9,300.3,1227.9,298.4L1227.9,298.4z"/>
		</g>
	</g>
	<g>
		<g>
			<path class="st0" d="M1085.2,208.5c46.8,0,93.6,0,140.4,0c1.9,0,1.9-3,0-3c-46.8,0-93.6,0-140.4,0
				C1083.3,205.5,1083.3,208.5,1085.2,208.5L1085.2,208.5z"/>
		</g>
	</g>
	<g>
		<g>
			<path class="st0" d="M1100.8,721.4c48.3,0,96.6,0,144.9,0c1.9,0,1.9-3,0-3c-48.3,0-96.6,0-144.9,0
				C1098.8,718.4,1098.8,721.4,1100.8,721.4L1100.8,721.4z"/>
		</g>
	</g>
	<g>
		<g>
			<path class="st0" d="M1169.6,724.1c0,9.2,0,18.4,0,27.6c0,1.9,3,1.9,3,0c0-9.2,0-18.4,0-27.6
				C1172.6,722.1,1169.6,722.1,1169.6,724.1L1169.6,724.1z"/>
		</g>
	</g>
	<g>
		<g>
			<path class="st0" d="M1147.7,757.3c23.9,0,47.8,0,71.8,0c1.9,0,1.9-3,0-3c-23.9,0-47.8,0-71.8,0
				C1145.8,754.3,1145.7,757.3,1147.7,757.3L1147.7,757.3z"/>
		</g>
	</g>
	<g>
		<g>
			<path class="st0" d="M406.4,653.7c0,33.1,0,66.3,0,99.4c0,1.9,3,1.9,3,0c0-33.1,0-66.3,0-99.4
				C409.4,651.8,406.4,651.8,406.4,653.7L406.4,653.7z"/>
		</g>
	</g>
	<g>
		<g>
			<path class="st0" d="M407.9,655.2c48.8,0,97.5,0,146.3,0c1.9,0,1.9-3,0-3c-48.8,0-97.5,0-146.3,0
				C405.9,652.2,405.9,655.2,407.9,655.2L407.9,655.2z"/>
		</g>
	</g>
	<g>
		<g>
			<path class="st0" d="M408,755.3c49-0.1,98-0.1,147-0.2c1.9,0,1.9-3,0-3c-49,0.1-98,0.1-147,0.2
				C406.1,752.3,406.1,755.3,408,755.3L408,755.3z"/>
		</g>
	</g>
	<g>
		<g>
			<path class="st0" d="M553.6,654.1c0,32.4,0,64.8,0,97.3c0,1.9,3,1.9,3,0c0-32.4,0-64.8,0-97.3
				C556.6,652.2,553.6,652.2,553.6,654.1L553.6,654.1z"/>
		</g>
	</g>
	<g>
		<g>
			<path class="st0" d="M419,667.6c-2.1-1.2-1.6-4.6,1-4.7c3.5-0.1,1.4,5.9-0.9,4.4c-1.6-1.1-3.1,1.5-1.5,2.6
				c5.6,3.8,10.7-7.5,4.1-9.7c-2.6-0.9-5.6,0.6-6.7,3.1c-1.1,2.6,0.1,5.5,2.4,6.9C419.2,671.2,420.7,668.6,419,667.6L419,667.6z"/>
		</g>
	</g>
	<g>
		<g>
			<path class="st0" d="M425.5,678.7c28.8,0,57.6,0,86.4,0c1.9,0,1.9-3,0-3c-28.8,0-57.6,0-86.4,0
				C423.5,675.7,423.5,678.7,425.5,678.7L425.5,678.7z"/>
		</g>
	</g>
	<g>
		<g>
			<path class="st0" d="M426.8,689.3c16.6,0,33.2,0,49.8,0c1.9,0,1.9-3,0-3c-16.6,0-33.2,0-49.8,0
				C424.8,686.3,424.8,689.3,426.8,689.3L426.8,689.3z"/>
		</g>
	</g>
	<g>
		<g>
			<path class="st0" d="M429.6,752.6c0-10.6,0-21.3,0-31.9c0-1.9-3-1.9-3,0c0,10.6,0,21.3,0,31.9
				C426.6,754.5,429.6,754.5,429.6,752.6L429.6,752.6z"/>
		</g>
	</g>
	<g>
		<g>
			<path class="st0" d="M428.4,721.2c24.1,0,48.3,0,72.4,0c1.9,0,1.9-3,0-3c-24.1,0-48.3,0-72.4,0
				C426.5,718.2,426.5,721.2,428.4,721.2L428.4,721.2z"/>
		</g>
	</g>
	<g>
		<g>
			<path class="st0" d="M499.3,720.4c0,10.5,0,21,0,31.6c0,1.9,3,1.9,3,0c0-10.5,0-21,0-31.6C502.3,718.4,499.3,718.4,499.3,720.4
				L499.3,720.4z"/>
		</g>
	</g>
	<g>
		<g>
			<path class="st0" d="M443.2,752.2c0-7,0-14,0-20.9c0-1.9-3-1.9-3,0c0,7,0,14,0,20.9C440.2,754.2,443.2,754.2,443.2,752.2
				L443.2,752.2z"/>
		</g>
	</g>
	<g>
		<g>
			<path class="st0" d="M455.2,752.2c0-7,0-14,0-20.9c0-1.9-3-1.9-3,0c0,7,0,14,0,20.9C452.2,754.2,455.2,754.2,455.2,752.2
				L455.2,752.2z"/>
		</g>
	</g>
	<g>
		<g>
			<path class="st0" d="M466.8,751.9c0-6.4,0-12.8,0-19.3c0-1.9-3-1.9-3,0c0,6.4,0,12.8,0,19.3C463.8,753.8,466.8,753.8,466.8,751.9
				L466.8,751.9z"/>
		</g>
	</g>
	<g>
		<g>
			<path class="st0" d="M478.8,752.9c0-6.6,0-13.3,0-19.9c0-1.9-3-1.9-3,0c0,6.6,0,13.3,0,19.9C475.8,754.8,478.8,754.8,478.8,752.9
				L478.8,752.9z"/>
		</g>
	</g>
	<g>
		<g>
			<path class="st0" d="M491.7,751.2c0-6.2,0-12.4,0-18.6c0-1.9-3-1.9-3,0c0,6.2,0,12.4,0,18.6C488.7,753.2,491.7,753.2,491.7,751.2
				L491.7,751.2z"/>
		</g>
	</g>
	<g>
		<g>
			<path class="st0" d="M545.1,663.7c-1.2-0.5-1.4-2.6,0-3.1c0.6-0.2,1.6-0.1,1.8,0.6c0.2,0.4-0.2,1.4-0.8,1.3
				c-0.8-0.1-1.6,0.2-1.8,1c-0.2,0.7,0.2,1.7,1,1.8c2.4,0.4,4.5-1.4,4.6-3.8c0.1-2.3-2.1-4.1-4.3-4.1c-2.2,0-4,1.4-4.5,3.6
				c-0.4,2,0.4,4.3,2.3,5.2C545.3,667.1,546.8,664.5,545.1,663.7L545.1,663.7z"/>
		</g>
	</g>
</g>
<g id="background">
	<circle class="st1" cx="1051.4" cy="621.6" r="13.5"/>
	<circle class="st1" cx="1078.1" cy="598.4" r="7.1"/>
	<circle class="st2" cx="933.2" cy="116.6" r="17.4"/>
	<circle class="st2" cx="405.8" cy="558.3" r="9.5"/>
	<circle class="st1" cx="418.2" cy="538.4" r="10.2"/>
	<circle class="st1" cx="916.5" cy="114.4" r="15.2"/>
	<g>
		<g>
			<path class="st1" d="M969.5,344.8c0.2-2.1,1.2-3,2.9-2.9c0.9-0.2,1.9-0.3,2.8-0.1c1.1,0,2.2,0.2,3.2,0c1.6-0.3,3-0.8,4.1-2
				c1.1-1.3,1.3-2.9,1.6-4.5c0.9-5.3,4.7-3.5,8.2-2.6c3.9,1,7.1,0.1,9.7-3c1.4-1.7,2.3-3.8,3.3-5.8c1.2-2.4,7-9.8,9-3.8
				c0.6,1.8,3.5,1,2.9-0.8c-1.6-4.7-7.3-5.2-10.8-2.2c-3.1,2.7-3.9,6.9-6.3,10c-4.1,5.5-8.4,0.9-13.6,1.1c-2.1,0.1-3.7,1.2-4.6,3.1
				c-1.4,2.9,0.1,4.2-3.1,6.2c-2.9,1.9-3.7,0.8-6.8,1.2c-4,0.6-8.2,5.6-3.9,8.6C969.5,348.5,971,345.9,969.5,344.8L969.5,344.8z"/>
		</g>
	</g>
	<g>
		<g>
			<path class="st1" d="M982.8,353.1c-1.6-2.1-1-3.2,1.7-3.5c1.6-1.3,3.4-1.5,5.3-0.7c0.9,0.1,1.9,0.3,2.8,0.4
				c2.3,0.2,4.1-0.2,6.1-1.1c0.8-0.4,0.9-1.4,0.5-2.1c-3.5-7.1,7.4-8.3,11.1-8.5c3.1-0.1,6.2,0,9.2-1.1c3.8-1.5,6.4-4.2,6.8-8.3
				c0.2-1.9-2.8-1.9-3,0c-0.9,9.7-16.9,4.8-22.7,8.4c-4,2.4-6,6.8-3.9,11.1c0.2-0.7,0.4-1.4,0.5-2.1c-5.1,2.4-12.7-2.8-17,2.3
				c-2.1,2.5-1.8,6.1,1,7.9C983,356.7,984.5,354.1,982.8,353.1L982.8,353.1z"/>
		</g>
	</g>
	<g>
		<g>
			<path class="st2" d="M617.7,161.6c-2.3-8.8,8.4-16.1,15.1-8.9c6.7,7.2-1.4,17.3-10,14.4c-1.8-0.6-2.6,2.3-0.8,2.9
				c11.6,3.9,21.6-10.2,12.9-19.4c-8.7-9.3-23.2,0.1-20.1,11.8C615.3,164.3,618.2,163.5,617.7,161.6L617.7,161.6z"/>
		</g>
	</g>
	<g>
		<g>
			<path class="st2" d="M619.9,886.9c8,13.5,23.1,21.5,38.8,20.4c1.9-0.1,1.9-3.1,0-3c-14.7,1-28.7-6.3-36.2-18.9
				C621.5,883.7,618.9,885.2,619.9,886.9L619.9,886.9z"/>
		</g>
	</g>
	<g>
		<g>
			<path class="st2" d="M613.8,904.1c10.5,10.8,24.4,17.1,39.5,17.8c1.9,0.1,1.9-2.9,0-3c-14.3-0.7-27.4-6.7-37.4-17
				C614.6,900.6,612.4,902.8,613.8,904.1L613.8,904.1z"/>
		</g>
	</g>
	<g>
		<g>
			<path class="st0" d="M1287.7,220.1c-6.6,8.3,0.2,21.6,10.9,20.4c5.2-0.6,11.7-3.7,13.8,3.4c1,3.3,0.4,6.9,1.2,10.2
				c1.1,4.8,5,9.9,10.4,8.1c1.8-0.6,1-3.5-0.8-2.9c-7.3,2.4-6.8-10.3-7.5-14.4c-0.6-3.6-2.1-7-5.7-8.3c-5.2-1.9-10.6,2.4-15.7,0.5
				c-5.7-2.1-8.3-10.1-4.4-14.9C1291,220.8,1288.9,218.6,1287.7,220.1L1287.7,220.1z"/>
		</g>
	</g>
	<g>
		<g>
			<path class="st0" d="M1273.8,240.4c-2.5,4.1-0.6,8.4,2.9,11.3c4.5,3.6,9.6,3.3,15.1,3.8c4.7,0.4,8.4,1.7,10.9,5.9
				c1.7,2.9,2.3,6.3,4.1,9.1c2.5,3.8,6.9,6.6,11.4,4.7c1.8-0.7,1-3.6-0.8-2.9c-6.4,2.7-9.1-5.6-10.9-9.8c-1.5-3.6-3.5-6.6-7.2-8.3
				c-3.2-1.5-6.9-1.6-10.4-1.8c-4.5-0.3-17-2.9-12.5-10.4C1277.4,240.3,1274.8,238.8,1273.8,240.4L1273.8,240.4z"/>
		</g>
	</g>
	<g>
		<g>
			<path class="st0" d="M256.8,813.8c1.3-3.4,3-4.4,5-2.9c0.8,0.3,1.6,0.8,2.2,1.4c1.2,0.9,2.2,1.9,3.4,2.8c1.4,1,3,2.1,4.7,2.5
				c2.8,0.7,5.3-0.2,7.3-2.2c2.3-2.3,2.9-6.6,5.5-8.6c2.5-1.9,4.1,1.1,5.9,2.8c1.8,1.6,3.7,3.1,5.6,4.5c1.6,1.1,3.1-1.5,1.5-2.6
				c-3.6-2.6-6.8-5.6-9.8-8.9c-0.3-0.4-1-0.5-1.5-0.4c-3.2,1-4.9,3.5-6.5,6.4c-1.4,2.6-2.2,4.8-5.3,5.6c-4,1-6.3-2.3-9.3-4.5
				c-3-2.2-6.8-3.8-10.1-1.2c-2.2,1.8-2.8,4.3-1.5,6.8C255.2,817,257.8,815.5,256.8,813.8L256.8,813.8z"/>
		</g>
	</g>
	<g>
		<g>
			<path class="st0" d="M257.7,827.3c1.1,5.3,6.1,9.5,11.7,8.7c3.2-0.4,5.4-2.6,8.1-4.2c4.9-3,10.3-3,15.1,0.1
				c1.6,1,3.1-1.6,1.5-2.6c-4.6-2.9-10.1-3.8-15.3-1.7c-2.4,1-4.2,2.7-6.4,4c-4.9,2.8-10.7,0.6-11.9-5.2
				C260.2,824.6,257.3,825.4,257.7,827.3L257.7,827.3z"/>
		</g>
	</g>
	<g>
		<g>
			<path class="st3" d="M453.3,116.3c8.2,0.8,15.2,5.8,18.9,13.1c0.9,1.7,3.5,0.2,2.6-1.5c-4.2-8.3-12.2-13.7-21.5-14.6
				C451.4,113.1,451.4,116.1,453.3,116.3L453.3,116.3z"/>
		</g>
	</g>
	<g>
		<g>
			<path class="st3" d="M454.1,87.3c13.6,6.5,24.3,17.6,30.1,31.5c0.7,1.8,3.6,1,2.9-0.8c-6.1-14.7-17.2-26.5-31.5-33.3
				C453.9,83.9,452.4,86.5,454.1,87.3L454.1,87.3z"/>
		</g>
	</g>
	<g>
		<g>
			<path class="st3" d="M486.4,83.7c6.2,7,9.3,15.6,9.2,25c0,1.9,3,1.9,3,0c0.1-10.1-3.4-19.5-10.1-27.1
				C487.3,80.1,485.2,82.2,486.4,83.7L486.4,83.7z"/>
		</g>
	</g>
	<g>
		<g>
			<path class="st1" d="M942.9,925.7c-1.3-8.9,8.7-17.2,16.2-10c6.9,6.6-1.6,17.3-9.3,12.3c-1.6-1.1-3.1,1.5-1.5,2.6
				c10.1,6.6,21.8-6.9,13.8-16.1c-9.3-10.8-23.8-0.2-22.1,12.1C940.3,928.4,943.2,927.6,942.9,925.7L942.9,925.7z"/>
		</g>
	</g>
	<g>
		<g>
			<path class="st1" d="M955.2,878.6c-1.6-5.1,5-9.2,8.3-4.6c3,4.2-2,9.1-6.3,6.9c-1.7-0.9-3.2,1.7-1.5,2.6
				c7.3,3.8,15.3-4.8,10-11.5c-5.4-6.9-15.9-0.7-13.4,7.4C952.9,881.2,955.8,880.5,955.2,878.6L955.2,878.6z"/>
		</g>
	</g>
</g>
<g id="bot">
	<g id="leg_left">
		<path class="st3" d="M794.8,918c-3.2,0.2-5.5,1.8-10,5c-5.2,3.7-11.5,9.1-17.5,16.9c2.3,10.1,5.8,21.7,11.3,33.8
			c15.1,33.4,37.5,55,52.6,67c2.1-2.5,5-6.5,6.3-11.9c1.8-7.5-0.2-13.7-1.3-16.9c-3.7-11.9-6.2-24.2-9.4-36.3
			c-6.7-25.1-3.3-27.9-10-39.5C814.7,932.6,805.7,917.2,794.8,918z"/>
		<path class="st4" d="M866.8,634.9c3.6,7.2,7.9,16.9,11.9,28.8c9.8,29.3,11,53.4,11.3,61.4c0.3,10,0.5,39.3-11.3,74.5
			c-13.4,39.9-34.8,65.6-48.9,82c-13.9,16.3-27.3,28.3-37,36.3c0,2.4,0.4,6.9,3.1,11.3c6.5,10.2,19.8,10,20.7,10
			c8.1-5.7,18.1-13.4,28.8-23.2c18.4-16.8,30.3-31.9,35.1-38.2c8.1-10.6,22.7-30.2,34.4-59.5c12.7-31.7,16.2-60.4,16.9-80.2
			c0.8-21.5-1.6-36.7-5-58.2c-5.5-35.3-12.5-49.6-17.5-58.2c-4.6-7.8-9.2-13.7-12.5-17.5C886.8,614.4,876.8,624.6,866.8,634.9z"/>
		<g>
			<g>
				<path class="st3" d="M865.9,639c20.1,38.3,27.4,83.1,20.3,125.8c-6.5,39-24.8,75.2-49.2,106c-13.5,17-28.8,32.4-45.4,46.3
					c-1.5,1.2,0.7,3.4,2.1,2.1c30.6-25.8,57.3-56.8,75.3-92.6c18.8-37.5,26.6-79.4,21.1-121.1c-3.1-23.7-10.4-46.8-21.5-68
					C867.6,635.8,865,637.3,865.9,639L865.9,639z"/>
			</g>
		</g>
		<g>
			<g>
				<path class="st3" d="M902,611.4c22.6,42.2,31.7,91.1,27.2,138.7c-4.6,49-24.2,94.5-55.2,132.5c-17.2,21.1-37.1,39.7-58.5,56.5
					c-1.5,1.2,0.6,3.3,2.1,2.1c38.8-30.5,73.5-67.9,94.1-113.2c19.9-43.7,25.8-93.3,18.6-140.6c-4.2-27.1-12.8-53.4-25.7-77.5
					C903.7,608.2,901.1,609.7,902,611.4L902,611.4z"/>
			</g>
		</g>
		<g>
			<g>
				<path class="st3" d="M790.8,917.9c1.7,13.5,12.8,28.1,27.9,22.3c1.8-0.7,1-3.6-0.8-2.9c-13.2,5.1-22.6-7.7-24.1-19.4
					C793.6,916,790.6,916,790.8,917.9L790.8,917.9z"/>
			</g>
		</g>
		<g>
			<g>
				<path class="st3" d="M789.9,917.6c-9.6,5-17.5,12.1-23.7,20.9c-1.1,1.6,1.5,3.1,2.6,1.5c5.9-8.4,13.6-15.1,22.6-19.8
					C793.1,919.3,791.6,916.7,789.9,917.6L789.9,917.6z"/>
			</g>
		</g>
		<g>
			<g>
				<path class="st3" d="M766.5,941.2c9.2,39.2,31.3,74.9,63.1,99.8c1.5,1.2,3.6-0.9,2.1-2.1c-31.4-24.6-53.2-59.7-62.3-98.5
					C768.9,938.5,766,939.3,766.5,941.2L766.5,941.2z"/>
			</g>
		</g>
		<g>
			<g>
				<path class="st3" d="M816.1,940.6c4.4,16.6,8.9,33.1,13.3,49.7c4.1,15.1,12.6,35.6,0.8,49.3c-1.3,1.5,0.9,3.6,2.1,2.1
					c11-12.8,6-30,2.1-44.6c-5.1-19.1-10.3-38.2-15.4-57.3C818.5,937.9,815.6,938.7,816.1,940.6L816.1,940.6z"/>
			</g>
		</g>
		<g>
			<g>
				<path class="st3" d="M878.3,659.9c7.8-13.1,22.2-20.9,37.4-20.3c1.9,0.1,1.9-2.9,0-3c-16.3-0.6-31.7,7.8-40,21.8
					C874.7,660,877.3,661.5,878.3,659.9L878.3,659.9z"/>
			</g>
		</g>
		<g>
			<g>
				<path class="st3" d="M889.5,703.1c6.4-7.8,15-12.6,24.9-14.2c1.9-0.3,1.1-3.2-0.8-2.9c-10.4,1.6-19.6,6.9-26.2,15
					C886.2,702.5,888.3,704.6,889.5,703.1L889.5,703.1z"/>
			</g>
		</g>
		<g>
			<g>
				<path class="st3" d="M894.3,672.9c8-6.7,17.9-10,28.2-9.6c1.9,0.1,1.9-2.9,0-3c-11.2-0.4-21.8,3.3-30.4,10.5
					C890.7,672,892.8,674.1,894.3,672.9L894.3,672.9z"/>
			</g>
		</g>
		<g>
			<g>
				<path class="st3" d="M890.6,759.9c4.2-5.3,11.7-5.2,17.9-5c7.5,0.3,16.8,2.9,17.9,11.7c0.2,1.9,3.2,1.9,3,0
					c-1.1-8.6-8.5-13.2-16.5-14.3c-7.8-1.1-19-1.3-24.4,5.6C887.3,759.3,889.4,761.5,890.6,759.9L890.6,759.9z"/>
			</g>
		</g>
		<g>
			<g>
				<path class="st3" d="M810.3,902c0.7,11.6,6.4,26.7,19.7,28.2c1.9,0.2,1.9-2.8,0-3c-11.4-1.3-16.1-15.4-16.7-25.2
					C813.2,900.1,810.2,900.1,810.3,902L810.3,902z"/>
			</g>
		</g>
		<g>
			<g>
				<path class="st3" d="M830.3,881.5c1.8,8.8,6.7,16.2,14,21.5c1.6,1.1,3.1-1.5,1.5-2.6c-6.6-4.8-10.9-11.7-12.6-19.7
					C832.8,878.8,829.9,879.6,830.3,881.5L830.3,881.5z"/>
			</g>
		</g>
		<g>
			<g>
				<path class="st3" d="M847.3,880.5c4.7,6,10,12.1,17.8,13.6c1.9,0.4,2.7-2.5,0.8-2.9c-7.3-1.4-12.1-7.3-16.5-12.9
					C848.2,876.8,846.1,879,847.3,880.5L847.3,880.5z"/>
			</g>
		</g>
		<g>
			<g>
				<path class="st3" d="M870,823c12.9-0.5,25.1,4,34.7,12.7c1.4,1.3,3.6-0.8,2.1-2.1c-10.1-9.2-23.1-14.1-36.8-13.5
					C868.1,820.1,868.1,823.1,870,823L870,823z"/>
			</g>
		</g>
		<g>
			<g>
				<path class="st3" d="M889.2,795.5c7.5-0.7,14.6,1.3,20.6,6c1.5,1.2,3.6-0.9,2.1-2.1c-6.5-5.2-14.4-7.6-22.7-6.9
					C887.3,792.6,887.3,795.6,889.2,795.5L889.2,795.5z"/>
			</g>
		</g>
		<path class="st5" d="M895.1,619.3c4.2,12.9,9.3,31.1,13,53.4c3.7,22.5,8.6,51.6,3.6,86.6c-4.9,34.6-17.1,59-26,76.5
			c-23.4,46-55.1,78.9-82.3,101.1c-4.1-6.5-8.2-13-12.3-19.5c7.9-5,19-12.9,30.3-24.5c10.8-11.1,17.2-20.8,26.7-35.4
			c12-18.4,18.3-28.1,24.5-41.9c15.5-34.4,17.1-65,17.3-72.9c0.9-25.2-3.7-44.6-8.7-65.7c-3.6-15.2-7.6-27.7-10.8-36.8
			C878.8,633.3,887,626.3,895.1,619.3z"/>
		<path class="st5" d="M887.2,639.6c2.1,5.5,4.9,13.4,7.2,23.1c3.8,15.8,5.4,31.6,5.1,50.5c-0.6,35.7-1.2,68.6-14.4,103.2
			c-22.5,58.7-69.7,91.7-92.4,105.4c10.6-11.3,25.2-27.6,41.1-48.4c19.4-25.1,29-37.7,36.8-53.4c26.8-54,19.7-107.3,17.3-122
			c-3.5-21.6-9.9-38.8-15.2-50.5C877.6,644.9,882.4,642.2,887.2,639.6z"/>
	</g>
	<g id="lreg_right">
		<path class="st4" d="M730.3,659.3c-4.2,4.8-4,10.3-5.6,31.3c-2.3,30.4-3.2,24.1-4.4,44.5c-3.8,65.6,1.9,123.4,1.9,123.4
			c1.7,17.8,7.8,72.6,24.4,129.7c8.6,29.5,23.2,70.2,23.8,72c4.3,12,8,22,10.6,28.8c0.6,0.4,15.9,9,26.9,1.9c1.7-1.1,6.4-4.2,7.5-10
			c0.9-4.8-1.1-8.7-1.9-10c-3.3-10-8.1-24.9-13.2-43.2c-8.5-30.6-20.9-76.5-25.7-135.9c-1.8-22.7-1.8-38.9-1.9-66.4
			c0-26.3,0-55.7,3.8-93.3c1.8-18,4.9-42.4,10.6-71.4C773,655.4,742,646.1,730.3,659.3z"/>
		<path class="st3" d="M780.7,1091c1.5,3.9,3.2,9.3,3.7,15.9c0.5,5.1,0.2,9.6-0.3,13.1c8.4,4.7,15.5,7.3,20.6,8.7
			c3.2,0.9,6.6,1.7,12.5,3.1c6.8,1.6,12,2.7,14,3.1c21,4.4,31.6,6.6,44,7.5c5,0.4,12.5,0.7,21.8,0.3c1.8-2.9,5.4-9.6,3.1-15.9
			c-1.8-5-6.3-7.4-14.4-11.5c-16.9-8.7-25.4-13-25.6-13.1c-10.4-4.1-25.1-11.6-43.4-26.5c-1.5,2.7-5.6,8.8-13.4,12.8
			C793.2,1093.7,783.4,1091.6,780.7,1091z"/>
		<g>
			<g>
				<path class="st3" d="M723.7,683.3c-14.1,107.6-5.2,217.9,25.7,321.8c8.7,29.1,19.1,57.7,31.1,85.6c0.8,1.8,3.3,0.2,2.6-1.5
					c-42.8-99.3-64.2-207.4-62.9-315.5c0.4-30.2,2.6-60.5,6.5-90.4C726.9,681.4,723.9,681.5,723.7,683.3L723.7,683.3z"/>
			</g>
		</g>
		<g>
			<g>
				<path class="st3" d="M778.3,693.7c-10.6,99.3-10.5,200.9,11.1,298.8c6.1,27.5,13.9,54.5,23.4,80.9c0.7,1.8,3.6,1,2.9-0.8
					c-34.1-94-44.3-194.9-40.6-294.4c1-28.2,3.2-56.4,6.2-84.5C781.5,691.7,778.5,691.7,778.3,693.7L778.3,693.7z"/>
			</g>
		</g>
		<g>
			<g>
				<path class="st3" d="M781.9,1091.3c13.5,4.1,28.6-2.7,34.4-15.7c0.8-1.7-1.8-3.3-2.6-1.5c-5.2,11.7-18.7,18-31,14.3
					C780.9,1087.8,780.1,1090.7,781.9,1091.3L781.9,1091.3z"/>
			</g>
		</g>
		<g>
			<g>
				<path class="st3" d="M779.9,1091c2.3,8.2,3.4,16.6,3.2,25.1c0,1.9,3,1.9,3,0c0.2-8.8-0.9-17.4-3.3-25.9
					C782.3,1088.3,779.4,1089.1,779.9,1091L779.9,1091z"/>
			</g>
		</g>
		<g>
			<g>
				<path class="st3" d="M783.2,1119.1c14,11,33.3,12.9,50.2,16.5c20.3,4.3,41.1,10.2,62,8.9c1.9-0.1,1.9-3.1,0-3
					c-20,1.2-39.8-4.3-59.3-8.4c-16.8-3.5-36.9-5.1-50.8-16.1C783.8,1115.8,781.7,1117.9,783.2,1119.1L783.2,1119.1z"/>
			</g>
		</g>
		<g>
			<g>
				<path class="st3" d="M816.1,1076.3c13.2,12,28.8,20.5,44.7,28.4c8.1,4,16.2,7.8,24.2,11.9c4,2,8.3,4.1,11.2,7.6
					c4.5,5.5,2,12.4-0.5,18.3c-0.7,1.8,1.8,3.3,2.6,1.5c3.1-7.4,5.8-15.7-0.3-22.3c-6.2-6.9-16.9-10.4-25.1-14.4
					c-19.2-9.3-38.7-18.7-54.7-33.1C816.8,1072.9,814.7,1075,816.1,1076.3L816.1,1076.3z"/>
			</g>
		</g>
		<g>
			<g>
				<path class="st3" d="M720.1,737c16.8,8.7,36.2,10.6,54.4,5.3c1.8-0.5,1.1-3.4-0.8-2.9c-17.4,5.1-36,3.4-52.1-5
					C719.9,733.5,718.4,736.1,720.1,737L720.1,737z"/>
			</g>
		</g>
		<g>
			<g>
				<path class="st3" d="M718.9,767.7c10.5,4.7,21.6,6.5,33.1,5.1c1.9-0.2,1.9-3.2,0-3c-10.8,1.4-21.6-0.2-31.6-4.7
					C718.7,764.3,717.2,766.9,718.9,767.7L718.9,767.7z"/>
			</g>
		</g>
		<g>
			<g>
				<path class="st3" d="M719.5,836.4c7.6,5.2,16.7,6.5,25.8,5.5c9.2-1,20.5-3.1,28.4-8c1.6-1,0.1-3.6-1.5-2.6
					c-7.4,4.6-18.3,6.6-26.9,7.6c-8.5,1-17.1-0.2-24.3-5.1C719.4,832.7,717.9,835.3,719.5,836.4L719.5,836.4z"/>
			</g>
		</g>
		<g>
			<g>
				<path class="st3" d="M725,880c16.4,6.6,35,5.1,50.2-4c1.7-1,0.2-3.6-1.5-2.6c-14.6,8.7-32.2,10-47.9,3.7
					C724,876.4,723.3,879.3,725,880L725,880z"/>
			</g>
		</g>
		<g>
			<g>
				<path class="st3" d="M740.3,962.5c15.5,5.5,30.6-1.5,43.7-9.5c1.6-1,0.1-3.6-1.5-2.6c-12.5,7.6-26.7,14.4-41.4,9.2
					C739.3,959,738.5,961.9,740.3,962.5L740.3,962.5z"/>
			</g>
		</g>
		<g>
			<g>
				<path class="st3" d="M791.4,1002.8c-5,5.5-11.2,9.2-18.3,11c-1.9,0.5-1.1,3.4,0.8,2.9c7.7-1.9,14.4-5.9,19.7-11.7
					C794.8,1003.5,792.7,1001.4,791.4,1002.8L791.4,1002.8z"/>
			</g>
		</g>
		<g>
			<g>
				<path class="st3" d="M766.6,1052.2c6.5-1,12.6-3.1,18.3-6.3c1.7-1,0.2-3.5-1.5-2.6c-5.5,3.1-11.3,5.1-17.5,6
					C763.9,1049.6,764.7,1052.5,766.6,1052.2L766.6,1052.2z"/>
			</g>
		</g>
		<path class="st6" d="M762.3,673.5c-3.9,13.6-8.7,33.4-11.5,57.7c-4,34.6-1.9,60.5,0.7,90.2c9.2,102.3,14,154.2,25.3,187.7
			c10.8,32,23.4,56.8,32.5,72.9c-0.4,0.5-9,10.8-20.2,8.7c-4-0.8-6.9-2.8-8.7-4.3c-7.9-17.9-18.3-43.5-28.2-75.1
			c-8.2-26.2-33-110.4-33.9-225.2c-0.2-28.3,0.9-66,6.5-110.4C737.3,674.9,749.8,674.2,762.3,673.5z"/>
		<path class="st6" d="M724.8,699.5c1.4,54.2,5.4,99.8,9.4,134.3c6.8,59.8,11.8,101,28.2,153c13.2,42,29,75.3,41.1,98.2
			c-7.2,1.2-14.4,2.4-21.7,3.6c-6.9-14.7-13.4-30.1-19.5-46.2C714.6,916.1,713.1,794.7,724.8,699.5z"/>
	</g>
	<g id="hand_left">
		<path class="st4" d="M925.8,381.4c-2,1.3-4.5,4.7-3.2,16.6c1.9,16.8,9,29.3,9.5,30.1c26.5,46.4,20.3,41.1,28.5,51.5
			c9.8,12.3,23.6,29.7,48,40.4c10.5,4.6,24.7,10.9,40.4,6.7c13.4-3.5,23.8-11.1,23.8-11.1c3.9-2.9,8-6.6,15.5-10.3
			c4.3-2.2,8.1-3.5,10.7-4.4c1.8,1,4.5,2.2,7.9,2.4c5.2,0.3,6.8-1.9,12.3-2.4c0.8-0.1,7.3-0.5,13.5,2.8c6.4,3.4,7.6,8.2,10.3,7.5
			c2.9-0.7,3.9-6.8,4-9.9c0.1-4.6-1.7-8-2.8-9.9c-2.6-4.8-6.4-7.6-8.7-9.1c-0.4-1.6-1.5-4.9-4.4-7.9c-3.5-3.7-7.5-4.8-9.1-5.2
			c-0.3-1.6-1-3.9-2.8-5.9c-4.8-5.4-13.2-3.9-15.5-3.6c-8,1.4-12.8,6.9-14.3,8.7c-1-0.6-3.7-2-7.1-1.6c-4.4,0.6-6.9,3.9-7.9,5.2
			c-4,5.2-3,11.4-2.8,12.7c-6.6,0.7-11.5,2.5-14.7,4c-6.1,2.9-8.1,5.7-13.9,7.9c-2.9,1.1-7.9,2.9-13.9,2c-5.2-0.8-8.9-3.2-11.1-4.8
			c-17.5-12.5-28.1-28.5-28.1-28.5c-30.1-45.3-27.1-39-30.1-44.8c-9.8-18.7-16.6-37.8-27.7-40C931.2,380.4,928.2,379.8,925.8,381.4z
			"/>
		<g>
			<g>
				<path class="st3" d="M937.5,380.8c13.1,28.9,29.6,56.3,49.1,81.4c16.6,21.4,38.7,48.5,69.3,42.7c1.9-0.4,1.1-3.3-0.8-2.9
					c-31.3,5.9-54.2-25.5-70.4-47.3c-17.5-23.4-32.4-48.7-44.5-75.4C939.3,377.5,936.7,379,937.5,380.8L937.5,380.8z"/>
			</g>
		</g>
		<g>
			<g>
				<path class="st3" d="M1024,498.5c4.3,1,8.7,2,13.1,1.3c4.3-0.7,8-3,11.7-5.1c10-5.6,20.9-8.6,32.4-8.8c1.9,0,1.9-3,0-3
					c-9,0.2-17.9,1.9-26.3,5.4c-4.1,1.7-7.8,4.1-11.7,6.1c-6.2,3.2-11.8,2.8-18.4,1.2C1022.9,495.2,1022.1,498,1024,498.5
					L1024,498.5z"/>
			</g>
		</g>
		<g>
			<g>
				<path class="st3" d="M926.1,418.4c13.4,28.5,27.2,57.7,49.8,80.2c19.8,19.6,49.2,36.1,77.7,27.8c7.7-2.2,14.9-6,21.6-10.3
					c7.5-4.9,14.8-12.4,24.3-12.5c1.9,0,1.9-3,0-3c-12.9,0.2-23,12-33.9,17.7c-15.2,7.9-31.2,9.3-47.5,3.9
					c-28.3-9.4-49.5-32.6-64.8-57.3c-9.4-15.3-17.1-31.6-24.7-47.9C927.9,415.1,925.3,416.7,926.1,418.4L926.1,418.4z"/>
			</g>
		</g>
		<g>
			<g>
				<path class="st3" d="M1080.7,485c9,0.4,22.1,5,19.5,16.6c-0.4,1.9,2.5,2.7,2.9,0.8c3.1-13.7-11.3-19.9-22.4-20.4
					C1078.8,481.9,1078.8,484.9,1080.7,485L1080.7,485z"/>
			</g>
		</g>
		<g>
			<g>
				<path class="st3" d="M1073.6,483.5c0.7-3.6,1-7.4,2.2-10.8c1.7-4.9,8.7-3.7,12.8-3c1.9,0.3,2.7-2.6,0.8-2.9
					c-4.2-0.7-10.8-1.9-14.3,1.4c-3.5,3.3-3.5,10.2-4.4,14.6C1070.3,484.6,1073.2,485.4,1073.6,483.5L1073.6,483.5z"/>
			</g>
		</g>
		<g>
			<g>
				<path class="st3" d="M1083.5,475.3c5.4-3.3,10.4-7,15.4-10.8c3.7-2.8,7.5-4.8,12.3-3.7c4.5,1.1,7.8,4.2,10.2,7.9
					c1.1,1.6,3.7,0.1,2.6-1.5c-4.1-6.1-10.6-10.9-18.4-9.5c-4,0.7-7,3.2-10.1,5.6c-4.4,3.4-8.9,6.5-13.6,9.4
					C1080.4,473.7,1081.9,476.3,1083.5,475.3L1083.5,475.3z"/>
			</g>
		</g>
		<g>
			<g>
				<path class="st3" d="M1105.1,477.2c4.4-0.9,8-2.6,12-4.3c2.2-0.9,4.7-1.7,6.9-0.9c1.4,0.5,2.5,1.5,3.7,2.4
					c2.2,1.7,4.3,3.6,6.2,5.6c1.4,1.4,3.5-0.8,2.1-2.1c-3.5-3.5-8.8-9.3-14.2-9.5c-2.3-0.1-4.3,1-6.3,2c-3.7,1.9-7.2,3.2-11.3,4
					C1102.4,474.7,1103.2,477.6,1105.1,477.2L1105.1,477.2z"/>
			</g>
		</g>
		<g>
			<g>
				<path class="st3" d="M1112.1,486.3c4.8-0.4,9.5-1.2,14.3-2.3c3.6-0.8,7.2-1.7,10.5,0.5c2.8,1.8,4.5,4.8,6.2,7.6
					c1,1.6,3.6,0.1,2.6-1.5c-2.8-4.5-6.2-9.5-11.9-10.5c-2.8-0.5-5.6,0.4-8.3,1c-4.5,1-8.9,1.8-13.5,2.2
					C1110.2,483.4,1110.2,486.4,1112.1,486.3L1112.1,486.3z"/>
			</g>
		</g>
		<g>
			<g>
				<path class="st3" d="M1102.7,504.5c6.1,2.3,11.4-0.4,17.3-1.8c9.1-2.1,15.5,3.6,21.5,9.5c1.4,1.4,3.5-0.8,2.1-2.1
					c-4.8-4.7-10-9.6-16.9-10.7c-8-1.3-15.4,5.2-23.3,2.2C1101.7,500.9,1100.9,503.8,1102.7,504.5L1102.7,504.5z"/>
			</g>
		</g>
		<g>
			<g>
				<path class="st3" d="M1125.2,492.8c5-0.1,10.5,0.5,15,2.9c5.9,3.2,6.9,10.4,1.7,14.7c-1.5,1.2,0.6,3.3,2.1,2.1
					c4.7-3.9,6-10.8,2.2-15.8c-4.5-6-14-7.2-21-7C1123.3,489.8,1123.3,492.8,1125.2,492.8L1125.2,492.8z"/>
			</g>
		</g>
		<g>
			<g>
				<path class="st3" d="M1142.6,491.6c0.9,1.9,1.4,3.9,1.5,5.9c0.1,1.9,3.1,1.9,3,0c-0.2-2.6-0.8-5.1-1.9-7.5
					C1144.4,488.4,1141.8,489.9,1142.6,491.6L1142.6,491.6z"/>
			</g>
		</g>
		<g>
			<g>
				<path class="st3" d="M939.7,441.4c2.4-9.5,10.6-16.6,20.4-17.4c1.9-0.2,1.9-3.2,0-3c-11.2,0.9-20.6,8.7-23.3,19.6
					C936.4,442.5,939.3,443.3,939.7,441.4L939.7,441.4z"/>
			</g>
		</g>
		<g>
			<g>
				<path class="st3" d="M951.3,460.7c0-5.6,2.1-10.6,6-14.4c1.4-1.4-0.7-3.5-2.1-2.1c-4.5,4.4-6.9,10.3-6.9,16.6
					C948.3,462.6,951.3,462.6,951.3,460.7L951.3,460.7z"/>
			</g>
		</g>
		<g>
			<g>
				<path class="st3" d="M959.8,473.5c1-10.7,8.2-19.9,18.4-23.4c1.8-0.6,1-3.5-0.8-2.9c-11.5,4-19.5,14.2-20.6,26.3
					C956.6,475.4,959.6,475.4,959.8,473.5L959.8,473.5z"/>
			</g>
		</g>
		<g>
			<g>
				<path class="st3" d="M974.8,493.7c0.8-10.8,8.8-19.7,19.4-21.8c1.9-0.4,1.1-3.3-0.8-2.9c-11.9,2.3-20.8,12.6-21.6,24.6
					C971.7,495.6,974.7,495.6,974.8,493.7L974.8,493.7z"/>
			</g>
		</g>
		<g>
			<g>
				<path class="st3" d="M996.7,513.2c1-9.1,6.4-16.9,14.3-21.3c1.7-0.9,0.2-3.5-1.5-2.6c-9,5-14.7,13.7-15.8,23.9
					C993.5,515.1,996.5,515.1,996.7,513.2L996.7,513.2z"/>
			</g>
		</g>
		<g>
			<g>
				<path class="st3" d="M1021.7,497.8c5.6,7.9,6.3,17.9,1.5,26.4c-0.9,1.7,1.6,3.2,2.6,1.5c5.2-9.4,4.7-20.7-1.5-29.5
					C1023.2,494.7,1020.6,496.2,1021.7,497.8L1021.7,497.8z"/>
			</g>
		</g>
		<g>
			<g>
				<path class="st3" d="M1056.3,488.9c0.3,1.5,1,1.9,2.4,2.4c2.8,1.1,5.4,1.3,8,3c5.5,3.7,8.7,9.9,8.6,16.4c0,1.9,3,1.9,3,0
					c0.1-5.4-1.7-10.5-5.2-14.7c-1.7-2-3.7-3.7-5.9-5c-1-0.6-7.9-2.5-8-3C1058.8,486.2,1055.9,487,1056.3,488.9L1056.3,488.9z"/>
			</g>
		</g>
		<path class="st6" d="M932.7,395.6c5.2-0.4,8.4,20.7,18,43.3c8.1,18.9,25.7,60.1,61.4,71.5c18.1,5.8,44.3,4.9,65-5.8
			c9.2-4.8,14-9.8,26-12.3c13.5-2.8,33.9-1.9,39.7,9.4c1.7,3.3,1.8,6.7,1.4,9.4c-5.6-6.9-10.7-8.9-14.4-9.4
			c-5.3-0.7-8.2,1.6-15.9,2.2c-6,0.4-11.1-0.5-14.4-1.4c-5.4,1.9-13.5,5.3-22.4,10.8c-8.5,5.3-10.5,8.1-16.6,10.8
			c-10.5,4.6-20.4,3.3-28.9,2.2c-20.6-2.8-35-12.5-41.9-17.3c-6-4.2-15.2-11.4-27.4-26.7c-10.6-13.3-25.4-35-36.8-66.4
			C926.8,406.3,929,395.9,932.7,395.6z"/>
	</g>
	<g id="torso">
		<path class="st3" d="M698.4,420.2c1.2,6.1,2.7,14.5,4.2,24.5c0.9,6.4,4.4,31.5,4.7,67.2c0.3,38-3,70.6-6.8,95.4
			c-3.1,20.7-6.9,37.9-9.9,50.6c7.9,7.5,20.7,17.9,38.6,26.1c17.1,7.8,32.6,10.8,43.3,12c38.3-60.1,67.3-104.5,85-131.3
			c40-60.9,67.9-102,79.2-165.2c2.1-11.5,3.1-21.1,3.6-27.6c-13.4-3.4-33-7.1-56.8-6.3c-4.1,0.1-14.2,0.6-34.4,4.2
			c-21.3,3.7-48.7,10-80.3,20.8C749.5,397.1,725.4,406.6,698.4,420.2z"/>
		<path class="st4" d="M777.6,429.3c1,8.6,2.1,20.1,2.9,33.8c1,16.8,1,30.1,1,39.7c-0.2,40.2-2.5,79.7-2.9,87.2
			c-1.7,28.5-4,64.6-7.3,106.7c19.1-7.7,34.4-15.1,45-20.6c38.4-19.7,65.9-39.7,85.2-53.9c15.1-11.1,27.2-20.8,35.3-27.4
			c2.2-21.2,3.7-39.5,4.9-53.9c1.5-18.4,2.9-35.9,3.9-59.2c0.6-13.8,0.9-20.8,1-30.4c0.2-32.3-2.5-54-3.4-60.7
			c-1-7.8-2.1-14.2-2.9-18.6c-26.8,5.1-57.9,13-91.6,25.5C821.7,407.4,798,418.4,777.6,429.3z"/>
		<g>
			<g>
				<path class="st3" d="M699.1,420.7c57.6-29.1,119.1-46.1,183-54.1c1.9-0.2,1.9-3.2,0-3c-32.4,4.1-64.5,9.9-95.9,19.2
					c-30.5,9.1-60.2,20.9-88.6,35.3C695.8,419,697.3,421.6,699.1,420.7L699.1,420.7z"/>
			</g>
		</g>
		<g>
			<g>
				<path class="st3" d="M698.5,422c13.5-0.7,26.9,1.4,40.3,3.2c12.8,1.8,25.6,3.5,38.5,5.3c1.9,0.3,2.7-2.6,0.8-2.9
					c-13.5-1.9-26.9-3.7-40.4-5.6c-13-1.8-26-3.7-39.2-3C696.6,419.1,696.6,422.1,698.5,422L698.5,422z"/>
			</g>
		</g>
		<g>
			<g>
				<path class="st3" d="M880.5,367.2c20.3-1.3,40.5,0.8,60.2,6c1.9,0.5,2.7-2.4,0.8-2.9c-19.9-5.3-40.4-7.4-61-6.1
					C878.6,364.4,878.6,367.4,880.5,367.2L880.5,367.2z"/>
			</g>
		</g>
		<g>
			<g>
				<path class="st3" d="M780,429.4c50.9-25.2,104.9-43.8,160.5-55.4c1.9-0.4,1.1-3.3-0.8-2.9c-55.9,11.7-110.1,30.4-161.3,55.7
					C776.8,427.7,778.3,430.3,780,429.4L780,429.4z"/>
			</g>
		</g>
		<g>
			<g>
				<path class="st3" d="M774.9,429.1c8.7,68.4,4.4,137.5,0,206c-1.3,20.2-2.6,40.4-5.5,60.4c-0.3,1.9,2.6,2.7,2.9,0.8
					c5-34.2,6.3-69,8.2-103.5c1.9-34.7,3.2-69.4,2.1-104.1c-0.7-19.9-2.1-39.9-4.7-59.6C777.6,427.2,774.6,427.2,774.9,429.1
					L774.9,429.1z"/>
			</g>
		</g>
		<g>
			<g>
				<path class="st3" d="M698.1,419.7c12.4,78.1,9.9,158.2-7.5,235.4c-0.4,1.9,2.5,2.7,2.9,0.8c17.5-77.7,20-158.3,7.5-237
					C700.7,417,697.8,417.8,698.1,419.7L698.1,419.7z"/>
			</g>
		</g>
		<g>
			<g>
				<path class="st3" d="M690.2,657.4c21.6,21.6,49.7,35.8,79.9,40.2c1.9,0.3,2.7-2.6,0.8-2.9c-29.7-4.4-57.3-18.2-78.6-39.5
					C690.9,654,688.8,656.1,690.2,657.4L690.2,657.4z"/>
			</g>
		</g>
		<g>
			<g>
				<path class="st3" d="M938.4,373.8c12.9,73.1,4.5,147.5-3.9,220.7c-0.2,1.9,2.8,1.9,3,0c8.4-73.4,16.8-148,3.8-221.5
					C941,371.1,938.1,371.9,938.4,373.8L938.4,373.8z"/>
			</g>
		</g>
		<g>
			<g>
				<path class="st3" d="M934.6,594.3c-49.8,41.8-105.5,76.2-165.1,102.1c-1.8,0.8-0.2,3.4,1.5,2.6c59.8-26,115.7-60.6,165.7-102.5
					C938.2,595.2,936.1,593.1,934.6,594.3L934.6,594.3z"/>
			</g>
		</g>
		<g>
			<g>
				<path class="st3" d="M788.1,439.8c-1.7-1.4-2.5-4-1.2-5.9c1.2-1.9,4.2-2.6,6.1-1.3c1.8,1.2,2.4,4,1.3,5.9
					c-1.5,2.4-4.9,2.6-6.9,0.8c-1.1-1-2.7,0.6-1.6,1.6c2.8,2.5,7.2,2.6,9.7-0.3c2.4-2.7,2-7.2-0.8-9.5c-2.7-2.2-6.9-1.7-9.2,0.8
					c-2.4,2.8-1.8,7.2,1,9.5C787.7,442.3,789.3,440.7,788.1,439.8L788.1,439.8z"/>
			</g>
		</g>
		<g>
			<g>
				<path class="st3" d="M790.6,456c0.5,11.4,1,22.8,1.5,34.2c0.1,1.4,2.3,1.5,2.3,0c-0.5-11.4-1-22.8-1.5-34.2
					C792.8,454.6,790.5,454.6,790.6,456L790.6,456z"/>
			</g>
		</g>
		<g>
			<g>
				<path class="st3" d="M791.8,456.5c32.1-13.9,65.3-25.3,99.1-34.2c1.4-0.4,0.8-2.5-0.6-2.2c-34,9-67.3,20.5-99.6,34.4
					C789.3,455.2,790.5,457.1,791.8,456.5L791.8,456.5z"/>
			</g>
		</g>
		<g>
			<g>
				<path class="st3" d="M794,490.5c26.1-13.9,53.5-25.1,81.8-33.4c1.4-0.4,0.8-2.6-0.6-2.2c-28.5,8.4-56.1,19.7-82.3,33.7
					C791.6,489.2,792.7,491.1,794,490.5L794,490.5z"/>
			</g>
		</g>
		<g>
			<g>
				<path class="st3" d="M889.5,421.5c-4.7,11.4-9.5,22.8-14.2,34.2c-0.6,1.3,1.6,1.9,2.2,0.6c4.7-11.4,9.5-22.8,14.2-34.2
					C892.2,420.8,890,420.2,889.5,421.5L889.5,421.5z"/>
			</g>
		</g>
		<g>
			<g>
				<path class="st3" d="M894.8,421c-4.4,11-8.9,22-13.6,32.9c-0.6,1.3,1.4,2.5,1.9,1.1c4.7-11.1,9.4-22.2,13.8-33.4
					C897.6,420.3,895.4,419.7,894.8,421L894.8,421z"/>
			</g>
		</g>
		<g>
			<g>
				<path class="st3" d="M883,455.9c9.3-4,18.5-8,27.8-12c1.3-0.6,0.2-2.5-1.1-1.9c-9.3,4-18.5,8-27.8,12
					C880.6,454.5,881.7,456.5,883,455.9L883,455.9z"/>
			</g>
		</g>
		<g>
			<g>
				<path class="st3" d="M897.3,421.8c5.6-2.3,11.4-4.1,17.4-5.3c1.4-0.3,0.8-2.5-0.6-2.2c-6,1.2-11.8,2.9-17.4,5.3
					C895.4,420.1,895.9,422.3,897.3,421.8L897.3,421.8z"/>
			</g>
		</g>
		<g>
			<g>
				<path class="st3" d="M913.8,416.3c-2,8.3-3.6,16.7-4.9,25.2c-0.2,1.4,2,2,2.2,0.6c1.3-8.5,2.9-16.9,4.9-25.2
					C916.3,415.5,914.1,414.9,913.8,416.3L913.8,416.3z"/>
			</g>
		</g>
		<g>
			<g>
				<path class="st3" d="M921.9,590.6c-24.3,13.8-48.6,27.6-73,41.4c-1.3,0.7-0.1,2.7,1.1,1.9c24.3-13.8,48.6-27.6,73-41.4
					C924.3,591.8,923.1,589.9,921.9,590.6L921.9,590.6z"/>
			</g>
		</g>
		<g>
			<g>
				<path class="st3" d="M851.4,582.9c0.7,8-0.5,16.3-1.1,24.4c-0.6,8.6-1.2,17.2-1.9,25.8c-0.1,1.4,2.1,1.4,2.3,0
					c0.6-8.6,1.2-17.2,1.9-25.8c0.6-8,1.8-16.3,1.1-24.4C853.5,581.5,851.2,581.5,851.4,582.9L851.4,582.9z"/>
			</g>
		</g>
		<g>
			<g>
				<path class="st3" d="M852.8,582.9c23.7-13.3,48.6-24.4,74.4-33c1.4-0.5,0.8-2.6-0.6-2.2c-26,8.7-51.1,19.8-75,33.2
					C850.4,581.6,851.6,583.6,852.8,582.9L852.8,582.9z"/>
			</g>
		</g>
		<g>
			<g>
				<path class="st3" d="M926.7,549.6c-1.2,13.9-3.2,27.7-6.2,41.3c-0.3,1.4,1.9,2,2.2,0.6c3-13.8,5.1-27.8,6.3-41.9
					C929.1,548.2,926.9,548.2,926.7,549.6L926.7,549.6z"/>
			</g>
		</g>
		<g>
			<g>
				<path class="st4" d="M701.5,421.1c17.3,1.2,34.3,4,51.1,8.1c1.9,0.5,2.7-2.4,0.8-2.9c-17.1-4.2-34.4-7-51.9-8.2
					C699.6,417.9,699.6,420.9,701.5,421.1L701.5,421.1z"/>
			</g>
		</g>
		<path class="st7" d="M871.5,390.9c-4.9,8.9-12.5,23.2-20.8,41c-22.4,48.1-78.1,167.7-41,203.9c6.8,6.6,21.9,15.5,59.4,7.7
			c-32.3,17.8-64.6,35.7-96.9,53.5c4.8-44.7,7.1-83,8.3-113c0.8-20,1.8-46.1,1.2-80.9c-0.5-28.9-2-53.7-3.6-73.1
			c11.1-6,23.2-12,36.3-17.8C834.6,403.3,853.8,396.3,871.5,390.9z"/>
	</g>
	<g id="hand_right">
		<path class="st4" d="M477.9,181.2c-1.8,2.5,0.5,6.9,1.6,9.1c2,3.8,7.1,11.6,20.6,17.4c-5,1.1-7,3.1-7.9,4.8
			c-1.8,3.3,0.4,5.6,0.4,13.5c0,5.8-1.3,6.7-0.8,11.5c0.4,4.1,1.7,7.4,2.8,9.5c0.2,1.9,0.5,4.6,1.2,7.9c0.5,2.4,0.8,3.6,1.2,4.4
			c2.1,3.8,8,5.8,13.1,4.8c6.4-1.4,9.2-7.2,9.5-7.9c2.7,4,5.3,5.2,7.1,5.5c3.3,0.6,5.5-1.3,11.9-2.8c3.2-0.8,5.8-1.1,7.5-1.2
			c-0.2,3.7-0.5,9.2-0.8,15.9c-0.9,22.1-1.4,33.7-0.4,47.6c0.3,4.4,1.4,17.5,5.2,34.1c2.3,10.2,5.9,25.6,14.3,43.2
			c5.2,10.9,13.3,28,30.5,44.4c7.8,7.4,26.5,24.8,56.7,31.3c22.5,4.8,41.3,1.5,51.9-1.2c8.2-4.4,16.4-8.7,24.6-13.1
			c1.2-1.7,3.2-5.3,3.2-9.9c0-6.9-4.3-13.4-11.1-17c-5.2,1.3-12.4,2.8-21,3.6c-8.4,0.7-25,2-44.4-4c-8.3-2.5-30.3-9.6-47.2-30.1
			c-8-9.7-11.5-18.4-17.4-33.3c-7-17.5-9.8-31.3-12.7-45.6c-6.1-30.8-9.2-46.3-6.3-61.4c1.5-7.8,4.3-17.1,2.4-30.1
			c-1.9-12.7-6.8-19.2-8.3-21c-4.1-5.1-9.1-8.1-11.9-9.9c-5.1-3.2-4.1-1.4-12.7-5.9c-1.5-0.8-3.2-1.7-5.5-1.6
			c-2.7,0.2-4.8,1.7-5.9,2.8c-6.3-1.8-11.6-3.5-15.5-4.8c-8.9-2.9-13.4-4.3-15.5-5.5c-5.3-3-7.2-5.6-12.3-6.3
			C484.4,179.4,479.7,178.7,477.9,181.2z"/>
		<g>
			<g>
				<path class="st3" d="M572.1,237.3c-3.3,21.9-2.9,44,0.1,65.9c3,22.1,8,44.5,15.7,65.4c6.5,17.7,15.9,34.3,30.6,46.5
					c12.8,10.6,28.2,17.6,44.4,21c18.5,3.9,37.9,3,56-2.4c1.8-0.6,1.1-3.5-0.8-2.9c-31.4,9.4-67.4,4.7-94-15
					c-15.2-11.3-25.4-27.2-32.1-44.7c-7.3-18.7-11.9-38.7-15.3-58.4c-4.2-24.7-5.4-49.9-1.7-74.7
					C575.3,236.2,572.4,235.4,572.1,237.3L572.1,237.3z"/>
			</g>
		</g>
		<g>
			<g>
				<path class="st3" d="M544.3,257.9c-3.7,49.3-2.1,101,20.9,145.9c19.3,37.7,53.3,68,96.4,73.2c23.4,2.8,47.6-2.1,67-15.8
					c1.6-1.1,0.1-3.7-1.5-2.6c-34.9,24.7-83.4,19.4-116.9-5.1c-35.4-26-54.5-68.4-61.1-110.8c-4.4-28-3.9-56.6-1.8-84.8
					C547.5,256,544.5,256,544.3,257.9L544.3,257.9z"/>
			</g>
		</g>
		<g>
			<g>
				<path class="st3" d="M718,433.6c10.5,4.2,13.9,16.3,7.7,25.6c-1.1,1.6,1.5,3.1,2.6,1.5c7.4-11,2.7-25.1-9.5-30
					C717,430,716.2,432.9,718,433.6L718,433.6z"/>
			</g>
		</g>
		<g>
			<g>
				<path class="st3" d="M553.1,223.7c3.5-6.5-6.3-5.8-9.5-6.8c-4.2-1.4-8.9-5.1-11.9-8.3c-4.5-4.8-4.9-14.7,4.5-12.9
					c18.7,3.7,38.6,20.8,35.7,41.3c-0.3,1.9,2.6,2.7,2.9,0.8c3.2-23-18-40.6-38.7-45.2c-7.6-1.7-12.5,5.5-10.2,12.5
					c1.4,4.2,5.1,7.3,8.5,9.8c2.1,1.6,4.4,3.2,6.8,4.3c1.1,0.4,9.6,2.1,9.1,3C549.6,223.9,552.2,225.4,553.1,223.7L553.1,223.7z"/>
			</g>
		</g>
		<g>
			<g>
				<path class="st3" d="M526.5,193.8c-11.9-2.8-23.5-6.9-34.4-12.5c-5-2.6-15.3-7.3-15.5,2.6c-0.1,7.9,7,15.9,12.9,20.3
					c8.9,6.7,20,9.2,30.7,10.8c1.9,0.3,2.7-2.6,0.8-2.9c-15.5-2.4-35.8-7.8-40.8-25.1c-0.4-1-0.6-2-0.6-3.1c1.9-3.2,4-3.9,6.6-2.3
					c1.8,0.8,3.4,1.8,5.2,2.7c3.3,1.6,6.6,3.2,10,4.6c7.9,3.3,16,5.9,24.3,7.8C527.6,197.2,528.4,194.3,526.5,193.8L526.5,193.8z"/>
			</g>
		</g>
		<g>
			<g>
				<path class="st3" d="M497.5,206.5c-5.6,1.6-7.9,8.5-7.7,13.8c0.3,6.8,4.7,12.5,10.4,15.9c5.2,3.2,13.1,5.7,18.6,1.6
					c4-3,4.9-8.7,1.4-12.4c-1.3-1.4-3.4,0.7-2.1,2.1c2.4,2.5,1.2,6.3-1.3,8c-2.2,1.5-5.2,1.4-7.7,1c-3.9-0.7-7.7-2.8-10.7-5.4
					c-2.9-2.6-4.9-5.9-5.4-9.7c-0.6-4.1,0.6-10.7,5.3-12.1C500.2,208.9,499.4,206,497.5,206.5L497.5,206.5z"/>
			</g>
		</g>
		<g>
			<g>
				<path class="st3" d="M491.6,226.5c-3.3,8.3-1.1,18.5,6,24.3c3.2,2.6,7.6,4.2,11.7,3.5c4.1-0.8,6.5-3.7,8.9-6.9
					c1.1-1.6-1.5-3.1-2.6-1.5c-2.6,3.5-5.6,6.2-10.2,5.3c-3.8-0.7-7-3.2-9.1-6.3c-3.5-5.2-4-11.7-1.7-17.5
					C495.2,225.5,492.3,224.7,491.6,226.5L491.6,226.5z"/>
			</g>
		</g>
		<g>
			<g>
				<path class="st3" d="M492.6,246.8c0.3,8.2,3.5,17.7,12.7,19.5c9.8,1.9,15.1-8.1,17.6-15.9c0.6-1.8-2.3-2.6-2.9-0.8
					c-2,6.2-6.1,15.4-14.3,13.6c-7.6-1.6-9.9-9.7-10.1-16.4C495.6,244.9,492.6,244.8,492.6,246.8L492.6,246.8z"/>
			</g>
		</g>
		<g>
			<g>
				<path class="st3" d="M518.7,256c1,4.4,5.5,6,9.6,6.6c6.5,1,11.3-2.3,17.6-3c1.9-0.2,1.9-3.2,0-3c-3.1,0.4-5.8,1.6-8.9,2.4
					c-3.9,1.1-14.1,2-15.4-3.8C521.2,253.3,518.3,254.1,518.7,256L518.7,256z"/>
			</g>
		</g>
		<g>
			<g>
				<path class="st3" d="M546,259c10,3.9,21.3,0.2,27.3-8.6c1.1-1.6-1.5-3.1-2.6-1.5c-5.3,7.8-15.3,10.6-23.9,7.2
					C545,255.4,544.3,258.3,546,259L546,259z"/>
			</g>
		</g>
		<g>
			<g>
				<path class="st3" d="M659.2,436.6c3.9,3.8,3,13.7,2.7,18.7c-0.4,6.5-2.3,12.7-6.9,17.5c-1.3,1.4,0.8,3.5,2.1,2.1
					c5.1-5.4,7.3-12.3,7.7-19.6c0.4-6,1.2-16.2-3.5-20.9C659.9,433.1,657.8,435.2,659.2,436.6L659.2,436.6z"/>
			</g>
		</g>
		<g>
			<g>
				<path class="st3" d="M688.9,438.5c6.1,11.3,6.2,24.7,0.3,36.1c-0.9,1.7,1.7,3.2,2.6,1.5c6.4-12.4,6.3-26.8-0.3-39.1
					C690.6,435.2,688,436.8,688.9,438.5L688.9,438.5z"/>
			</g>
		</g>
		<g>
			<g>
				<path class="st3" d="M546,319.7c10,3.4,20.6,2.3,29.8-3c1.7-1,0.2-3.6-1.5-2.6c-8.5,4.9-18.1,5.8-27.5,2.7
					C545,316.2,544.2,319.1,546,319.7L546,319.7z"/>
			</g>
		</g>
		<g>
			<g>
				<path class="st3" d="M555.2,378.3c12.7,2.7,25.6-2,33.5-12.3c1.2-1.5-1.4-3-2.6-1.5c-7.1,9.1-18.8,13.4-30.1,10.9
					C554.1,375,553.3,377.9,555.2,378.3L555.2,378.3z"/>
			</g>
		</g>
		<g>
			<g>
				<path class="st3" d="M609.9,407c0.4,5.6-1.5,10.7-5.4,14.7c-1.4,1.4,0.8,3.5,2.1,2.1c4.5-4.5,6.7-10.5,6.3-16.9
					C612.8,405.1,609.8,405.1,609.9,407L609.9,407z"/>
			</g>
		</g>
		<g>
			<g>
				<path class="st3" d="M547.7,348.5c4.4,2,9.1,2.4,13.7,1c1.9-0.5,1.1-3.4-0.8-2.9c-3.8,1.1-7.7,0.9-11.4-0.7
					C547.5,345.1,545.9,347.7,547.7,348.5L547.7,348.5z"/>
			</g>
		</g>
		<g>
			<g>
				<path class="st3" d="M545.4,278.2c8.6,2.1,17,1.2,25.1-2.4c1.8-0.8,0.2-3.4-1.5-2.6c-7.3,3.3-15,3.9-22.8,2.1
					C544.3,274.8,543.5,277.7,545.4,278.2L545.4,278.2z"/>
			</g>
		</g>
		<g>
			<g>
				<path class="st3" d="M572.6,416.3c14.3,3.3,28-4.2,32.9-18c0.6-1.8-2.2-2.6-2.9-0.8c-4.3,12.2-16.6,18.8-29.2,15.9
					C571.5,412.9,570.7,415.8,572.6,416.3L572.6,416.3z"/>
			</g>
		</g>
		<g>
			<g>
				<path class="st3" d="M633.7,426.4c4.3,12.7-8.8,25.5-18.7,30.9c-1.7,0.9-0.2,3.5,1.5,2.6c11.1-6,24.9-20.3,20.1-34.2
					C636,423.8,633.1,424.6,633.7,426.4L633.7,426.4z"/>
			</g>
		</g>
		<path class="st5" d="M502.9,212.1c3.6,3.7-0.7,9.9,2.4,13.9c1.7,2.1,5.5,3.7,14.8,1.9c0,1.6,0.1,4,1,6.7c0,0,2,6.4,7.6,10.5
			c6.5,4.8,16.2,4.9,24.9,0.5c0.4,6,1.1,14.5,1.9,24.9c4.7,59.4,6.5,70.1,9.1,80.3c3,12,6.8,26.9,16.7,43.5
			c6.2,10.3,27,43.9,69.8,57.3c36.3,11.4,67.5,1.6,78.4-2.4c-0.6,4.1-1.3,8.3-1.9,12.4c-4.8,2.9-11.7,6.6-20.5,9.6
			c-1.1,0.4-20.9,6.8-43,4.8c-41.7-3.8-70.7-35.6-77.9-43.5c-26-28.6-33.4-59.9-36.8-74.1c-5-21.3-5.4-40.9-5.7-55
			c-0.4-17.9,0.7-33,1.9-44c-1.8,0.9-6.4,2.8-12.4,1.9c-6.8-1-11.1-4.9-12.4-6.2c-0.3,0.8-1.9,5.7-7.2,8.1c-0.3,0.2-6,2.6-11,0
			c-4.5-2.3-5.7-7.3-8.1-17.2c-1.5-6-1.8-10.3-2.4-17.2c-1.2-15.1,0.4-16.9,1.4-17.7C495.9,209.2,500.6,209.7,502.9,212.1z"/>
		<path class="st8" d="M565,397.5c3,3.5,7.6,8.6,13.4,14.3c10.2,10.1,33.4,33.2,59.3,44c36.1,15,73.4,4.6,90.3-1.4
			c-0.6,2.1-1.3,4.1-1.9,6.2c-5,2.7-52.4,27.3-102.7,3.3C581.4,444,567.4,404.7,565,397.5z"/>
	</g>
	<g id="head">
		<path class="st4" d="M791.3,338.6c-1,5.6-1.4,10.5-1.5,14.1c-0.1,2.2-0.4,10.4,1.2,21.2c0.7,5,1.7,9.2,2.5,12.3
			c4.1,1.1,10,2.2,17.2,1.8c9.5-0.5,16.8-3.4,21.2-5.5c-0.2-2.7-0.4-7-0.9-12.3c-1.1-11.9-2-16.1-2.1-23.9c-0.1-3.3,0-8.3,0.6-14.4
			c-4.2-1.1-12.5-2.7-22.4-0.3C799.8,333.2,794.5,336.3,791.3,338.6z"/>
		<g>
			<g>
				<path class="st3" d="M790,337.5c-3.4,15.8-1.2,31.7,1.3,47.5c0.3,1.9,3.2,1.1,2.9-0.8c-2.4-15.2-4.6-30.7-1.3-45.9
					C793.3,336.4,790.4,335.6,790,337.5L790,337.5z"/>
			</g>
		</g>
		<g>
			<g>
				<path class="st3" d="M792,339.6c4.5-4,11.1-5.4,16.8-6.6c6.5-1.3,12.9-1.5,19.4-0.3c1.9,0.4,2.7-2.5,0.8-2.9
					c-7-1.4-14-1.1-21,0.3c-6.4,1.3-13.2,2.9-18.2,7.4C788.5,338.8,790.6,340.9,792,339.6L792,339.6z"/>
			</g>
		</g>
		<g>
			<g>
				<path class="st3" d="M827.9,331.7c-1.2,16.8-0.3,33.6,2.5,50.2c0.3,1.9,3.2,1.1,2.9-0.8c-2.8-16.4-3.6-32.9-2.4-49.4
					C831,329.8,828,329.8,827.9,331.7L827.9,331.7z"/>
			</g>
		</g>
		<g>
			<g>
				<path class="st3" d="M791.9,386c4.9,3.9,13.2,3.4,19.2,3.2c7.5-0.2,14.8-1.8,21.3-5.6c1.7-1,0.2-3.6-1.5-2.6
					c-5.6,3.3-11.7,4.8-18.1,5.2c-5.1,0.3-14.5,1-18.7-2.3C792.5,382.7,790.4,384.8,791.9,386L791.9,386z"/>
			</g>
		</g>
		<g>
			<g>
				<path class="st3" d="M791.4,356.1c3.7-5.2,9.9-6.9,15.9-8.2c6.7-1.5,13.6-2.9,19.8,0.9c1.7,1,3.2-1.6,1.5-2.6
					c-6.9-4.2-14.6-2.9-22.1-1.2c-6.8,1.6-13.4,3.7-17.7,9.6C787.7,356.1,790.3,357.6,791.4,356.1L791.4,356.1z"/>
			</g>
		</g>
		<g>
			<g>
				<path class="st3" d="M792,373.2c10.2-8.3,23.5-11.6,36.5-9c1.9,0.4,2.7-2.5,0.8-2.9c-14.1-2.8-28.2,0.7-39.4,9.8
					C788.4,372.3,790.5,374.4,792,373.2L792,373.2z"/>
			</g>
		</g>
		<g>
			<g>
				<path class="st3" d="M808.7,377.3c3.4-1.5,6.9-2,10.7-2c2.6,0,8.4-0.3,10.2,1.8c1.3,1.5,3.4-0.7,2.1-2.1
					c-2.3-2.7-7.5-2.4-10.7-2.6c-4.8-0.2-9.3,0.5-13.8,2.4C805.4,375.5,806.9,378,808.7,377.3L808.7,377.3z"/>
			</g>
		</g>
		<path class="st3" d="M697.1,327.5c8.5,4.8,21.8,11.2,38.9,14.7c18.4,3.8,32.7,2.6,48.8,1.2c6.4-0.6,27.7-2.7,56.1-11
			c17.6-5.2,41.2-13.7,67.5-28.2c2-9.9,3.8-21.3,4.6-34c0.9-13.7,0.6-26.1-0.3-36.8c-5.6-6.2-12.4-12.9-20.5-19.6
			c-7.4-6.2-14.6-11.2-21.2-15.3C813,241.5,755.1,284.5,697.1,327.5z"/>
		<path class="st4" d="M870.7,198.4c1.4,5,3.2,12.1,4.6,20.9c0.9,5.5,3.7,25.5,0.3,51.8c-0.9,7.4-2.6,17.2-5.8,28.5
			c-3.6,2.2-8.6,5.1-14.7,8.3c-20.2,10.5-37.2,15.5-43.2,17.2c-4.3,1.2-24.8,6.8-53.1,8c-15.6,0.6-37.2,0.1-62.6-5.2
			c1.8-30.5,3.7-60.9,5.5-91.4c5.7-2.8,13.6-6.5,23.3-10.4c6.2-2.5,34.9-13.9,76.1-21.2C819.5,201.6,843,198.7,870.7,198.4z"/>
		<g>
			<g>
				<path class="st3" d="M700.8,236.4c-2.1,30.4-4.2,60.9-6.2,91.3c-0.1,1.9,2.9,1.9,3,0c2.1-30.4,4.2-60.9,6.2-91.3
					C703.9,234.4,700.9,234.4,700.8,236.4L700.8,236.4z"/>
			</g>
		</g>
		<g>
			<g>
				<path class="st3" d="M703.9,236.8c51.7-23.8,108.2-36.3,165.1-36.6c1.9,0,1.9-3,0-3c-57.5,0.3-114.4,12.9-166.6,37
					C700.7,235,702.2,237.6,703.9,236.8L703.9,236.8z"/>
			</g>
		</g>
		<g>
			<g>
				<path class="st3" d="M695.7,328.6c59.4,14.5,122.8,4.7,174.8-27.5c1.6-1,0.1-3.6-1.5-2.6c-51.4,31.7-113.9,41.5-172.5,27.2
					C694.6,325.2,693.8,328.1,695.7,328.6L695.7,328.6z"/>
			</g>
		</g>
		<g>
			<g>
				<path class="st3" d="M868.5,198.9c9.4,33.3,9.1,68.5-0.8,101.7c-0.6,1.9,2.3,2.6,2.9,0.8c10.1-33.6,10.4-69.5,0.8-103.3
					C870.9,196.2,868,197,868.5,198.9L868.5,198.9z"/>
			</g>
		</g>
		<g>
			<g>
				<path class="st3" d="M870.2,199.3c15.7,10.1,29.5,22.6,41.1,37.2c1.2,1.5,3.3-0.6,2.1-2.1c-11.8-14.8-25.8-27.4-41.7-37.6
					C870.1,195.6,868.6,198.2,870.2,199.3L870.2,199.3z"/>
			</g>
		</g>
		<g>
			<g>
				<path class="st3" d="M910.7,235.6c2.1,23.3,0.8,46.6-3.9,69.6c-0.4,1.9,2.5,2.7,2.9,0.8c4.8-23.2,6.1-46.8,4-70.3
					C913.5,233.7,910.5,233.7,910.7,235.6L910.7,235.6z"/>
			</g>
		</g>
		<g>
			<g>
				<path class="st3" d="M695.9,329.5c8.3,3.4,16.6,6.7,24.9,10.1c6.2,2.5,12.6,3.5,19.1,4.3c15.3,2.1,30.9,2.6,46.3,1.2
					c25.9-2.2,51.5-9.6,75.8-18.5c16.4-6,32.3-13.2,47.6-21.5c1.7-0.9,0.2-3.5-1.5-2.6c-24.4,13.2-50.1,23.1-76.7,30.7
					c-28,8-56.6,11.5-85.7,8.3c-7-0.8-14.8-1.3-21.4-3.8c-9.3-3.5-18.5-7.5-27.7-11.2C694.9,325.9,694.1,328.8,695.9,329.5
					L695.9,329.5z"/>
			</g>
		</g>
		<g>
			<g>
				<path class="st3" d="M868.4,303.5c13.4,2.6,26.9,3.1,40.5,1.5c1.9-0.2,1.9-3.2,0-3c-13.3,1.6-26.5,1.1-39.7-1.4
					C867.3,300.3,866.5,303.1,868.4,303.5L868.4,303.5z"/>
			</g>
		</g>
		<g>
			<g>
				<path class="st3" d="M731.4,258.2c-2.6-1.2-2.2-4.9-2.3-7.2c-0.1-1.2-0.2-2.4-0.1-3.7c0-1.4,0.2-2.6,0.8-3.9
					c0.7-1.6,1.8-1.8,3.1-0.8c2.3,0.8,2,1.4,2,3.6c0,1.3-0.1,2.5-0.2,3.8c-0.1,1.3-0.1,2.7-0.2,4c0,0.4-1.1,7.3-3,4.5
					c-1.1-1.6-3.7-0.1-2.6,1.5c2.9,4.3,7.5,0.9,8.3-3c0.7-3.5,0.7-7.6,0.7-11.2c0-2.3-0.4-4.9-2.4-6.3c-4.5-3.2-8.9,2.1-9.4,6.3
					c-0.5,4.3-1,12.9,3.8,15.1C731.6,261.6,733.1,259,731.4,258.2L731.4,258.2z"/>
			</g>
		</g>
		<g>
			<g>
				<path class="st3" d="M730,241.4c-1.7,6.2-1.3,12.5,1.1,18.5c0.6,1.5,3,1.4,2.9-0.4c-0.1-5.8,0.2-11.5,0.9-17.2c-1,0-2,0-3,0
					c0.3,2.4,0.5,4.7,0.5,7.1c0,1,0.1,2.3-0.1,3.2c-0.1,0.7-1,3.2-0.6,0.8c0.3-1.9-2.7-1.9-3,0c-0.4,2.9,2.4,7.3,5.5,4.3
					c1.2-1.2,1.1-3.5,1.2-5.1c0.2-3.5,0-6.9-0.4-10.3c-0.2-1.9-2.7-1.9-3,0c-0.8,5.7-1.1,11.4-0.9,17.2c1-0.1,2-0.3,2.9-0.4
					c-2.2-5.5-2.6-11.1-1.1-16.9C733.4,240.4,730.5,239.6,730,241.4L730,241.4z"/>
			</g>
		</g>
		<g>
			<g>
				<path class="st3" d="M728.9,243.9c-0.8,2-0.9,4.1-0.6,6.2c0.1,0.8,1.1,1.2,1.8,1c0.9-0.2,1.2-1,1-1.8c-0.2-1.6,0.1-3.1,0.6-4.6
					C732.5,242.9,729.6,242.1,728.9,243.9L728.9,243.9z"/>
			</g>
		</g>
		<g>
			<g>
				<path class="st3" d="M814.4,243c-2.6-1.2-2.2-4.9-2.3-7.2c-0.1-1.2-0.2-2.3-0.1-3.5c0-0.7,0-1.4,0.2-2c0.1-2.3,2-3,5.5-2
					c1,1.5,0.1,5.7,0,7.3c-0.1,1.1-0.1,2.2-0.2,3.3c0,0.4-1.1,7.3-3,4.5c-1.1-1.6-3.7-0.1-2.6,1.5c2.9,4.3,7.5,0.9,8.3-3
					c0.7-3.4,0.6-7.3,0.7-10.7c0-2.3-0.2-5-2.1-6.6c-4.3-3.7-9,1.3-9.7,5.5c-0.7,4.3-1.1,13.3,3.7,15.6
					C814.7,246.4,816.2,243.9,814.4,243L814.4,243z"/>
			</g>
		</g>
		<g>
			<g>
				<path class="st3" d="M813.1,226.3c-1.7,6.2-1.3,12.5,1.1,18.5c0.6,1.5,3,1.4,2.9-0.4c-0.1-5.8,0.2-11.5,0.9-17.2c-1,0-2,0-3,0
					c0.3,2.4,0.5,4.7,0.5,7.1c0,1,0.1,2.3-0.1,3.2c-0.1,0.7-1,3.2-0.6,0.8c0.3-1.9-2.7-1.9-3,0c-0.4,2.9,2.4,7.3,5.5,4.3
					c1.2-1.2,1.1-3.5,1.2-5.1c0.2-3.5,0-6.9-0.4-10.3c-0.2-1.9-2.7-1.9-3,0c-0.8,5.7-1.1,11.4-0.9,17.2c1-0.1,2-0.3,2.9-0.4
					c-2.2-5.5-2.6-11.1-1.1-16.9C816.5,225.2,813.6,224.4,813.1,226.3L813.1,226.3z"/>
			</g>
		</g>
		<g>
			<g>
				<path class="st3" d="M812,228.7c-0.8,2-0.9,4.1-0.6,6.2c0.1,0.8,1.1,1.2,1.8,1c0.9-0.2,1.2-1,1-1.8c-0.2-1.6,0.1-3.1,0.6-4.6
					C815.6,227.7,812.7,227,812,228.7L812,228.7z"/>
			</g>
		</g>
		<g>
			<g>
				<path class="st3" d="M755.6,274c8.8,1.2,20.5,0.1,28.3-4.5c1.7-1,0.2-3.6-1.5-2.6c-7.1,4.1-18,5.3-26,4.2
					C754.6,270.9,753.7,273.8,755.6,274L755.6,274z"/>
			</g>
		</g>
		<g>
			<g>
				<path class="st3" d="M754.2,274.2c2.7,6,9.3,14.4,16.9,13.4c7.5-0.9,12-11.5,13.6-17.8c0.5-1.9-2.4-2.7-2.9-0.8
					c-1.1,4.5-4.3,12.9-9.1,14.9c-7,2.9-13.4-5.9-15.8-11.3C756,271,753.4,272.5,754.2,274.2L754.2,274.2z"/>
			</g>
		</g>
		<g>
			<g>
				<path class="st3" d="M756.7,275.4c7.7,3.6,19.2,1.7,25.7-3.5c-0.7-0.7-1.4-1.4-2.1-2.1c-3.8,3.1-8.5,4.9-13.5,4.8
					c-2.7,0-4.9-1.4-7.1,0.4c-0.4,0.4-0.5,1-0.4,1.5c0.5,2.7,4.2,4,6.5,4.4c4.8,0.8,9.2-1.5,13-4.3c-0.6-0.8-1.2-1.6-1.8-2.4
					c-3.4,3.9-12.1,6-15.8,1.3c-1.1-1.4-3.1,0.4-2.4,1.8c2.1,3.8,5.3,7.6,10.1,7.3c5-0.2,8.1-4.5,10.6-8.3c1-1.5-1.1-2.8-2.4-1.8
					c-2.3,1.8-3.9,2.1-6.4,3c-1.6,0.6-2.8,0.3-2.2,2.3c0.5,1.6,2.2,2.1,3.6,2.1c4.3-0.2,8.7-6.4,10.6-9.7c0.8-1.4-1.2-3.1-2.4-1.8
					c-3.8,4.1-6,10.7-12.1,11.6c-1.9,0.3-1.1,3.2,0.8,2.9c6.9-1.1,9.2-7.9,13.4-12.4c-0.8-0.6-1.6-1.2-2.4-1.8
					c-1.4,2.3-3.8,6.1-6.5,7.2c-2.1,0.8-1.8,0.3-3.4-1.4c-0.4-0.5-0.7-1.1-1.2-1.4c-1.8-1.1-3.6-0.1-4.2,1.7c-0.2,0.5,0,1.1,0.4,1.5
					c4.3,4.7,9.9,1.5,14-1.6c-0.8-0.6-1.6-1.2-2.4-1.8c-2,3-3.8,5.9-7.6,6.4c-3.9,0.6-6.1-2.3-7.8-5.5c-0.8,0.6-1.6,1.2-2.4,1.8
					c4.7,5.9,15.5,3.8,20-1.3c1.1-1.2-0.4-3.4-1.8-2.4c-3.2,2.4-7.1,4.7-11.2,3.8c-1.4-0.1-2.7-0.8-3.8-1.8c0.3,0.9,0.9,1.3,1.6,1.4
					c1.1,0.5,3.1,0.3,4.3,0.2c5.3-0.3,10.1-2.4,14.2-5.7c1.5-1.2-0.6-3.3-2.1-2.1c-5.2,4.1-15.8,6-22.1,3
					C756.4,272,754.9,274.6,756.7,275.4L756.7,275.4z"/>
			</g>
		</g>
		<g>
			<g>
				<path class="st3" d="M767.4,282.6c2.3-1.7,4.5-3.5,6.4-5.6c-0.8-0.6-1.6-1.2-2.4-1.8c-0.9,1.7-2.2,3.4-2.9,5.2
					c-0.3,0.9-0.4,1.9,0.4,2.7c0.7,0.7,1.8,0.7,2.7,0.3c1.7-0.8,3.2-2.2,4.7-3.3c-0.7-0.7-1.4-1.4-2.1-2.1c-0.6,1.5-2.6,4.4-0.9,5.8
					c1.9,1.6,3.6-1.2,4.6-2.4c1.2-1.5-0.9-3.6-2.1-2.1c-0.4,0.4-1.2,1.9-1.8,2c0.5,0.1,1,0.3,1.5,0.4c-0.1-0.1-0.2-0.2-0.2-0.3
					c0.1,0.4,0.3,0.7,0.4,1.1c0-0.9,0.8-2.1,1.1-2.9c0.5-1.2-0.7-3-2.1-2.1c-0.6,0.4-3.9,3.3-4.4,3.1c0.3,0.2,0.6,0.5,0.9,0.7
					c-0.1-0.1-0.1-0.3-0.2-0.4c0.1,0.4,0.1,0.8,0.2,1.2c0.3-1.8,1.9-3.8,2.8-5.4c0.8-1.5-1.2-3.1-2.4-1.8c-1.8,1.9-3.7,3.6-5.8,5.1
					C764.3,281.1,765.8,283.7,767.4,282.6L767.4,282.6z"/>
			</g>
		</g>
		<g>
			<g>
				<path class="st3" d="M709,241.5c-2.3,26.9-3.9,53.9-4.9,80.9c-0.1,1.9,2.9,1.9,3,0c1-27,2.6-54,4.9-80.9
					C712.2,239.6,709.2,239.6,709,241.5L709,241.5z"/>
			</g>
		</g>
		<g>
			<g>
				<path class="st3" d="M862.8,209.8c7.6,28.4,2.8,57.7-3.9,85.7c-0.5,1.9,2.4,2.7,2.9,0.8c6.9-28.5,11.7-58.4,3.9-87.3
					C865.2,207.2,862.3,208,862.8,209.8L862.8,209.8z"/>
			</g>
		</g>
		<g>
			<g>
				<path class="st4" d="M872.7,300.9c8.8,1.6,17.7,3.2,26.5,4.8c1.9,0.3,2.7-2.5,0.8-2.9c-8.8-1.6-17.7-3.2-26.5-4.8
					C871.6,297.7,870.8,300.6,872.7,300.9L872.7,300.9z"/>
			</g>
		</g>
		<path class="st9" d="M884.1,239.1c-0.8,1.3-1.7,3.2-2.3,5.4c-0.9,3.6-0.7,6.7-0.5,8.6c-6,6.1-21.5,20.2-45.4,23.6
			c-9.5,1.4-17.8,0.7-24-0.5c-0.7,2.6-1.2,5.9,0.5,7.3c1.1,1,2.7,0.6,5.4,0.5c4.5-0.2,6.9,0.7,9.1,0.9c6.2,0.7,22.6-2.2,40.4-12.2
			c4.8-2.7,11.4-6.9,18.6-13.2c0.5,0.7,4.1,5,9.5,5c7.5-0.1,11-8.3,11.3-9.1c1.8-4.4,1.9-10.5-1.8-15c-3.4-4.2-8.2-4.9-9.5-5
			C889.2,234.8,884.8,238.4,884.1,239.1z"/>
		<g>
			<g>
				<path d="M889.5,241.1c-4.6,7.2-1.8,17.7,7.9,17.5c1,0,1-1.5,0-1.5c-8.6,0.2-10.5-9.2-6.6-15.3
					C891.4,241,890.1,240.3,889.5,241.1L889.5,241.1z"/>
			</g>
		</g>
		<g>
			<g>
				<path d="M896.3,250.8c-1.3-1-2-2.7-1.6-4.3c0.4-1.5,2.3-3,3.9-2.2c1.7,0.8,2.3,3.5,1.5,5.1c-0.7,1.6-3.1,2.3-4.3,0.7
					c-0.6-0.8-1.9,0-1.3,0.8c1.4,1.9,4.3,2.1,6.1,0.4c2-2,1.8-5.7-0.2-7.7c-1.9-1.9-5-1.1-6.4,1c-1.6,2.3-0.9,5.5,1.3,7.2
					C896,252.4,897,251.4,896.3,250.8L896.3,250.8z"/>
			</g>
		</g>
		<g>
			<g>
				<path d="M833,277.2c1.6,2,2,4.7,0.9,7c-0.4,0.9,0.9,1.6,1.3,0.8c1.3-2.8,1-6-0.9-8.5C833.7,275.7,832.4,276.4,833,277.2
					L833,277.2z"/>
			</g>
		</g>
		<g>
			<g>
				<path d="M816,277.4c0.9,1.7,1,3.7,0.1,5.5c-0.4,0.9,0.9,1.6,1.3,0.8c1.1-2.3,1-4.8-0.1-7C816.8,275.8,815.5,276.5,816,277.4
					L816,277.4z"/>
			</g>
		</g>
		<g>
			<g>
				<path d="M820.4,278.5c1.1,1.1,1.2,3,0.2,4.2c-0.6,0.7,0.5,1.8,1.1,1.1c1.5-1.9,1.5-4.6-0.2-6.3
					C820.8,276.7,819.8,277.8,820.4,278.5L820.4,278.5z"/>
			</g>
		</g>
		<g>
			<g>
				<path d="M825.3,278.6c1.7,1.2,1.6,3.8,0.1,5c-0.7,0.6,0.3,1.7,1.1,1.1c2.3-1.9,2-5.7-0.4-7.4
					C825.3,276.8,824.6,278.1,825.3,278.6L825.3,278.6z"/>
			</g>
		</g>
		<g>
			<g>
				<path d="M849.3,211.2c-2.1-0.8-1.4-3.4,0-4.4c1.4-1,3.2-0.7,4.1,0.8c1.9,3.3-2.6,6-4.9,3.3c-0.9-1.1-2.5,0.5-1.6,1.6
					c1.9,2.2,5.5,2.4,7.7,0.5c2.2-2,2-5.6,0-7.6c-2.1-2.2-5.6-1.7-7.6,0.5c-2.1,2.5-1.4,6.4,1.7,7.5
					C850.1,213.8,850.6,211.7,849.3,211.2L849.3,211.2z"/>
			</g>
		</g>
		<path class="st10" d="M853.3,198.8c0.7,12.4,2,25.8,4.3,40.2c1.5,9.6,3.3,18.8,5.3,27.3c-2.2,1.4-4.5,2.8-6.9,4.2
			c-11.8,6.7-23.2,11-33.5,13.8c5.3,0.2,11.9-0.1,19.5-1.5c9.1-1.7,16.5-4.6,21.9-7.2c-8,8.8-18.6,19-32.2,28.7
			c-19.5,14-38.3,22.1-52.5,27c10.9,3.8,21.8,7.6,32.6,11.4c0.8,14.8,1.6,29.6,2.4,44.5c5.5-1.4,11-2.8,16.6-4.3
			c-0.8-9.3-1.5-18.9-1.9-28.9c-0.2-5.6-0.4-11.1-0.5-16.6c9.5-2.6,17.3-5.1,23.2-7.1c21.8-7.4,37.3-14.9,41.6-17
			c7.2-3.5,13-6.7,17-9c1.1-6.9,2.1-14.1,2.8-21.8c1.7-17.8,1.8-34.1,0.9-48.7c-4.7-5.8-10.8-12.3-18.4-18.9
			c-8.1-7-16-12.2-22.7-16.1C866.2,198.8,859.7,198.8,853.3,198.8z"/>
	</g>
</g>
<g id="tabs">
	<path class="st11" d="M483.5,577.5c0.8,36.9,1.5,73.8,2.3,110.7c40,11.2,86.8,21.4,139.5,27.7c75,8.9,141.2,7.4,194.8,2.3
		c1.5-37.7,3.1-75.3,4.6-113c-46-1.8-93.3-4.5-141.8-8.1C613.8,591.9,547.3,585.3,483.5,577.5z"/>
	<g class="st12">
		<g>
			<path class="st1" d="M496,595.1c56.1,12.2,113.2,19.2,170.6,20.9c1.9,0.1,1.9-2.9,0-3c-57.1-1.7-114-8.6-169.8-20.8
				C494.9,591.8,494.1,594.7,496,595.1L496,595.1z"/>
		</g>
	</g>
	<g class="st12">
		<g>
			<path class="st1" d="M498.5,615.6c25.7,7.7,52,12.8,78.7,15.4c1.9,0.2,1.9-2.8,0-3c-26.4-2.6-52.5-7.7-77.9-15.3
				C497.4,612.1,496.6,615,498.5,615.6L498.5,615.6z"/>
		</g>
	</g>
	<g class="st12">
		<g>
			<path class="st1" d="M576,694.9c70.2,10.7,141.5,21.3,212.6,13.2c1.9-0.2,1.9-3.2,0-3c-70.9,8.1-141.8-2.4-211.8-13.1
				C574.9,691.7,574.1,694.6,576,694.9L576,694.9z"/>
		</g>
	</g>
	<g class="st12">
		<g>
			<path class="st1" d="M685.3,689.9c36,6.5,72.6,8.1,109,4.6c1.9-0.2,1.9-3.2,0-3c-36.1,3.4-72.5,1.9-108.2-4.5
				C684.2,686.7,683.4,689.5,685.3,689.9L685.3,689.9z"/>
		</g>
	</g>
	<g class="st12">
		<g>
			<path class="st1" d="M757.4,618.8c1.7,13.6,0.8,27.2-2.6,40.5c-0.3,1,0.5,1.8,1.4,1.9c8.6,0.7,17.1,1.4,25.7,2.1
				c3.7,0.3,12,2.9,14.3-1.2c1.2-2.1,0.9-5.7,1.1-8c0.2-3.6,0.3-7.2,0.5-10.8c0.4-8.2,1.1-16.3,3.7-24.2c0.3-0.9-0.5-2-1.4-1.9
				c-13,1-25.9,0.4-38.7-1.8c-1.2-0.2-2,0.7-1.8,1.8c0.2,1.2,0.2,1.2,0.9,2.2c1.1,1.6,3.7,0.1,2.6-1.5c-0.2-0.5-0.4-1-0.6-1.5
				c-0.6,0.6-1.2,1.2-1.8,1.8c13.1,2.3,26.2,2.9,39.5,1.9c-0.5-0.6-1-1.3-1.4-1.9c-4,11.9-3.6,24.3-4.4,36.6c-0.1,1.1,0,4.4-0.5,5.1
				c-1.1,1.5-3.6,0.9-5,0.8c-3.6-0.3-7.2-0.6-10.9-0.9c-7.2-0.6-14.5-1.2-21.7-1.8c0.5,0.6,1,1.3,1.4,1.9
				c3.5-13.5,4.5-27.4,2.7-41.3C760.2,616.9,757.2,616.9,757.4,618.8L757.4,618.8z"/>
		</g>
	</g>
	<path class="st13" d="M329.3,160.7c0.9,49.6,1.8,99.3,2.7,148.9c68.8,8.7,137.5,17.3,206.3,26c1.8-59.7,3.6-119.3,5.5-179
		C472.3,158,400.8,159.4,329.3,160.7z"/>
	<g>
		<g>
			<path class="st2" d="M508.9,319.5c1-1.9,3.3-4.9,3.6-7.1c0.2-1.6-1.3-3.2-2.1-4.5c-3.3-5.5-6.6-11.1-9.8-16.6
				c-1.6-2.7-3.6-5.5-4.9-8.3c-1.6-3.4-0.1-4.5,1.6-7.4c2.7-4.6,5-9.4,6.9-14.3c6.8-18,7.9-38.7-0.2-56.5
				c-13.2-29.1-45.1-35.7-74-36.3c-29.9-0.7-60.1,10.5-77.9,35.5c-20.6,28.9-8.3,69.4,19.6,88.6c29.1,20.1,69.8,19.2,100.2,2.9
				c1.7-0.9,0.2-3.5-1.5-2.6c-24.6,13.2-53.3,15.3-79.6,6c-27.2-9.6-48.1-36.5-46.1-66.2c2.3-33.4,35.1-54.9,65.4-59.9
				c9.2-1.5,18.4-1.5,27.7-1c12.7,0.7,25.5,2.5,37.1,7.9c16.4,7.6,27.5,22.3,30.8,40.1c3.9,21-2.7,42.6-14.4,59.9
				c-0.3,0.4-0.3,1.1,0,1.5c3.6,6.1,7.2,12.2,10.8,18.3c1.6,2.8,3.3,5.5,4.9,8.3c1,1.7,2.3,3.1,2.1,5.2c-0.1,1.5-1.9,3.7-2.6,5.1
				C505.4,319.7,508,321.3,508.9,319.5L508.9,319.5z"/>
		</g>
	</g>
	<g>
		<g>
			<path class="st2" d="M470.9,296.9c11,9.1,23.1,16.3,36.4,21.6c1.8,0.7,2.6-2.2,0.8-2.9c-12.7-5.1-24.5-12.1-35.1-20.8
				C471.5,293.5,469.4,295.6,470.9,296.9L470.9,296.9z"/>
		</g>
	</g>
	<ellipse class="st14" cx="381.6" cy="235.8" rx="7.2" ry="10.5"/>
	<ellipse class="st14" cx="422.8" cy="234.5" rx="7.2" ry="10.5"/>
	<ellipse class="st14" cx="462.9" cy="233.3" rx="7.2" ry="10.5"/>
</g>
</svg>
